<?xml version="1.0" encoding="UTF-8"?>
<svg id="Layer_1" xmlns="http://www.w3.org/2000/svg" xmlns:xlink="http://www.w3.org/1999/xlink" viewBox="0 0 1920 648.85">
  <defs>
    <style>
      .cls-1 {
        clip-path: url(#clippath-6);
      }

      .cls-2 {
        clip-path: url(#clippath-7);
      }

      .cls-3 {
        fill: url(#linear-gradient-20);
      }

      .cls-3, .cls-4, .cls-5, .cls-6, .cls-7, .cls-8 {
        opacity: .3;
      }

      .cls-9 {
        clip-path: url(#clippath-4);
      }

      .cls-10 {
        fill: url(#linear-gradient-2);
      }

      .cls-11 {
        fill: #11224e;
      }

      .cls-12 {
        fill: url(#linear-gradient-10);
      }

      .cls-13 {
        fill: url(#linear-gradient-12);
      }

      .cls-4 {
        fill: url(#linear-gradient-15);
      }

      .cls-5 {
        fill: url(#linear-gradient-17);
      }

      .cls-6 {
        fill: url(#linear-gradient-13);
      }

      .cls-14 {
        fill: none;
      }

      .cls-15 {
        fill: url(#linear-gradient-4);
      }

      .cls-16 {
        fill: url(#linear-gradient-3);
      }

      .cls-17 {
        clip-path: url(#clippath-1);
      }

      .cls-18 {
        fill: url(#linear-gradient-5);
      }

      .cls-19 {
        fill: url(#linear-gradient-22);
      }

      .cls-20 {
        fill: url(#linear-gradient-24);
      }

      .cls-21 {
        clip-path: url(#clippath-5);
      }

      .cls-22 {
        clip-path: url(#clippath-3);
      }

      .cls-23 {
        fill: url(#linear-gradient-14);
      }

      .cls-24 {
        fill: url(#linear-gradient-9);
      }

      .cls-25 {
        fill: url(#linear-gradient-11);
      }

      .cls-26 {
        fill: url(#linear-gradient-19);
      }

      .cls-27 {
        fill: url(#linear-gradient-6);
      }

      .cls-7 {
        fill: url(#linear-gradient-7);
      }

      .cls-28 {
        fill: url(#linear-gradient-21);
      }

      .cls-29 {
        clip-path: url(#clippath-2);
      }

      .cls-30 {
        fill: url(#linear-gradient-8);
        opacity: .6;
      }

      .cls-8 {
        fill: url(#linear-gradient-18);
      }

      .cls-31 {
        fill: url(#linear-gradient-16);
      }

      .cls-32 {
        fill: url(#linear-gradient);
      }

      .cls-33 {
        fill: url(#linear-gradient-23);
      }

      .cls-34 {
        clip-path: url(#clippath);
      }
    </style>
    <linearGradient id="linear-gradient" x1="124.1" y1="271.81" x2="843.82" y2="271.81" gradientUnits="userSpaceOnUse">
      <stop offset="0" stop-color="#11224e"/>
      <stop offset="1" stop-color="#5c83c4"/>
    </linearGradient>
    <linearGradient id="linear-gradient-2" x1="124.1" x2="843.82" xlink:href="#linear-gradient"/>
    <linearGradient id="linear-gradient-3" x1="124.1" x2="843.82" xlink:href="#linear-gradient"/>
    <linearGradient id="linear-gradient-4" x1="141.8" y1="271.81" x2="845.98" y2="271.81" xlink:href="#linear-gradient"/>
    <linearGradient id="linear-gradient-5" x1="1466.23" y1="897.94" x2="1715.11" y2="649.06" gradientTransform="translate(-346.23 -404.1) rotate(-1.5)" gradientUnits="userSpaceOnUse">
      <stop offset="0" stop-color="#f17720"/>
      <stop offset=".58" stop-color="#f9942a"/>
      <stop offset="1" stop-color="#ffa630"/>
    </linearGradient>
    <clipPath id="clippath">
      <path class="cls-14" d="M1473.45,223.51l10.96,19.72c-29.26,18.84-98.16,53.6-235.28,78.8,0,0,40.89,6.64,105.61,2.89-6.75,11.55-15.68,22.26-26.71,31.46-46.71,38.94-113.23,36.12-148.58-6.29-15.65-18.77-22.55-42.15-21.35-65.76,46.17-2.22,102.37-12.24,168.93-36.21,0,0-82.64,20.12-165.71,15.18,5.75-22.46,18.81-43.92,38.69-60.49,40.16-33.48,94.95-36.06,132-9.18-30.76,11.79-67.68,21.8-112.07,28.61,0,0,57.61-.69,123.47-18.81,1.79,1.81,3.53,3.68,5.19,5.67,9.6,11.52,15.89,24.77,19.06,38.75,20.12-7.29,47.22-17.54,70.18-27.75-5.21-20.29-14.74-39.51-28.77-56.35-55.15-66.16-158.93-70.55-231.8-9.81-72.87,60.74-87.23,163.62-32.08,229.78,55.15,66.16,158.93,70.55,231.8,9.81,25.93-21.62,44.44-48.58,55.06-77.31,25.83-4.31,53.53-10.35,82.53-18.72l11.62,20.91,58.12-94.29-110.85-.61Z"/>
    </clipPath>
    <linearGradient id="linear-gradient-6" x1="1935.57" y1="707.47" x2="1614.18" y2="770.1" gradientTransform="translate(-346.23 -404.1) rotate(-1.5)" gradientUnits="userSpaceOnUse">
      <stop offset="0" stop-color="#11224e"/>
      <stop offset=".17" stop-color="#365389"/>
      <stop offset=".31" stop-color="#5175b3"/>
      <stop offset=".38" stop-color="#5c83c4"/>
      <stop offset=".52" stop-color="#878c9c"/>
      <stop offset=".83" stop-color="#dc9e4e"/>
      <stop offset=".96" stop-color="#ffa630"/>
    </linearGradient>
    <linearGradient id="linear-gradient-7" x1="1503.65" y1="584.84" x2="1629.51" y2="856.42" gradientTransform="translate(-346.23 -404.1) rotate(-1.5)" gradientUnits="userSpaceOnUse">
      <stop offset="0" stop-color="#fff"/>
      <stop offset=".12" stop-color="#fff" stop-opacity=".82"/>
      <stop offset=".3" stop-color="#fff" stop-opacity=".58"/>
      <stop offset=".48" stop-color="#fff" stop-opacity=".37"/>
      <stop offset=".64" stop-color="#fff" stop-opacity=".21"/>
      <stop offset=".78" stop-color="#fff" stop-opacity=".09"/>
      <stop offset=".91" stop-color="#fff" stop-opacity=".02"/>
      <stop offset="1" stop-color="#fff" stop-opacity="0"/>
    </linearGradient>
    <linearGradient id="linear-gradient-8" x1="1737.15" y1="688.22" x2="1756.86" y2="752.54" xlink:href="#linear-gradient-7"/>
    <linearGradient id="linear-gradient-9" x1="1847.78" y1="-248.51" x2="2020.27" y2="-421" gradientTransform="translate(-560.64 857.43) rotate(-15.46)" xlink:href="#linear-gradient-5"/>
    <linearGradient id="linear-gradient-10" x1="5679.51" y1="-1335.87" x2="5876.16" y2="-1532.53" gradientTransform="translate(3204.18 5834.43) rotate(-97.9)" xlink:href="#linear-gradient-5"/>
    <linearGradient id="linear-gradient-11" x1="3030.59" y1="4442.94" x2="3220.89" y2="4252.64" gradientTransform="translate(4786.15 -4076.12) rotate(72.79)" xlink:href="#linear-gradient-5"/>
    <linearGradient id="linear-gradient-12" x1="7241.38" y1="3544.42" x2="7425.12" y2="3360.68" gradientTransform="translate(9460.02 971.87) rotate(157.9)" xlink:href="#linear-gradient-5"/>
    <clipPath id="clippath-1">
      <path class="cls-14" d="M1389.93,114.47s32.76,19.75,61.34,70.04l15.1-81.36-76.43,11.32Z"/>
    </clipPath>
    <linearGradient id="linear-gradient-13" x1="1689.76" y1="416.79" x2="1721.24" y2="458.27" gradientTransform="translate(-318.97 -146.35) rotate(-6.18)" gradientUnits="userSpaceOnUse">
      <stop offset="0" stop-color="#fff" stop-opacity="0"/>
      <stop offset=".09" stop-color="#fff" stop-opacity=".02"/>
      <stop offset=".22" stop-color="#fff" stop-opacity=".09"/>
      <stop offset=".36" stop-color="#fff" stop-opacity=".21"/>
      <stop offset=".52" stop-color="#fff" stop-opacity=".37"/>
      <stop offset=".7" stop-color="#fff" stop-opacity=".58"/>
      <stop offset=".88" stop-color="#fff" stop-opacity=".82"/>
      <stop offset="1" stop-color="#fff"/>
    </linearGradient>
    <linearGradient id="linear-gradient-14" x1="11084.6" y1="3180.09" x2="11060.64" y2="3111.52" gradientTransform="translate(9440.22 8558.03) rotate(-151.28)" xlink:href="#linear-gradient-5"/>
    <clipPath id="clippath-2">
      <path class="cls-14" d="M1291.71,457.54s-37.27,8.6-92.78-7.66l45.75,68.95,47.03-61.3Z"/>
    </clipPath>
    <linearGradient id="linear-gradient-15" x1="4499.45" y1="8060.62" x2="4530.93" y2="8102.1" gradientTransform="translate(10374.44 2183.66) rotate(129.75)" xlink:href="#linear-gradient-13"/>
    <linearGradient id="linear-gradient-16" x1="8497.09" y1="-1765.61" x2="8462.22" y2="-1829.47" gradientTransform="translate(9789.87 -1661.27) rotate(156.48) scale(1 -1)" xlink:href="#linear-gradient-5"/>
    <clipPath id="clippath-3">
      <path class="cls-14" d="M1341.86,96.8s-36.34-11.94-93.1-.79l51.81-64.52,41.29,65.31Z"/>
    </clipPath>
    <linearGradient id="linear-gradient-17" x1="4680.13" y1="-944.95" x2="4711.6" y2="-903.47" gradientTransform="translate(-1022.99 4264.4) rotate(-50.22)" xlink:href="#linear-gradient-13"/>
    <clipPath id="clippath-4">
      <path class="cls-14" d="M1135.67,168.85s18.8-29.14,65.15-53.64l-73.3-15.92,8.15,69.56Z"/>
    </clipPath>
    <linearGradient id="linear-gradient-18" x1="1803.92" y1="-231.89" x2="1843.82" y2="-252.59" gradientTransform="translate(-560.64 857.43) rotate(-15.46)" xlink:href="#linear-gradient-13"/>
    <linearGradient id="linear-gradient-19" x1="4697.78" y1="-869.36" x2="4681.3" y2="-927" gradientTransform="translate(-843.93 4613.33) rotate(-55.33)" xlink:href="#linear-gradient-5"/>
    <clipPath id="clippath-5">
      <path class="cls-14" d="M1094.22,297.81s-4.74-38.36,17.41-92.45l-74.09,38.76,56.68,53.69Z"/>
    </clipPath>
    <linearGradient id="linear-gradient-20" x1="4635.56" y1="-883.63" x2="4680.04" y2="-906.7" gradientTransform="translate(-843.93 4613.33) rotate(-55.33)" xlink:href="#linear-gradient-13"/>
    <clipPath id="clippath-6">
      <path class="cls-14" d="M1146.75,419.75s-30.11-25.61-50.84-81.68l-28.99,80.45,79.83,1.23Z"/>
    </clipPath>
    <linearGradient id="linear-gradient-21" x1="-161.42" y1="-4118.36" x2="-196.55" y2="-4196.69" gradientTransform="translate(1882.79 4490.05) rotate(-8.5)" gradientUnits="userSpaceOnUse">
      <stop offset="0" stop-color="#fff" stop-opacity="0"/>
      <stop offset=".09" stop-color="#fff" stop-opacity=".06"/>
      <stop offset=".27" stop-color="#fff" stop-opacity=".2"/>
      <stop offset=".51" stop-color="#fff" stop-opacity=".44"/>
      <stop offset=".8" stop-color="#fff" stop-opacity=".76"/>
      <stop offset="1" stop-color="#fff"/>
    </linearGradient>
    <clipPath id="clippath-7">
      <path class="cls-14" d="M1431.21,363.62s-16.3,33.14-62.33,64.77l79.51,7.82-17.18-72.6Z"/>
    </clipPath>
    <linearGradient id="linear-gradient-22" x1="7073.2" y1="-3052.62" x2="7052.88" y2="-3097.94" gradientTransform="translate(7155.98 5563.91) rotate(-114.46)" xlink:href="#linear-gradient-13"/>
    <linearGradient id="linear-gradient-23" x1="1645.21" y1="159.87" x2="1503.83" y2="159.87" gradientTransform="matrix(1,0,0,1,0,0)" xlink:href="#linear-gradient-5"/>
    <linearGradient id="linear-gradient-24" x1="1944.59" y1="271.81" x2="1475.71" y2="271.81" gradientTransform="matrix(1,0,0,1,0,0)" xlink:href="#linear-gradient-5"/>
  </defs>
  <g>
    <path class="cls-32" d="M119.37,116.3h275.7c22.41,0,40.4,9.17,51.9,23.73,11.59,14.67,16.4,34.82,11.66,57.04-5.32,24.93-10.52,49.86-15.78,74.77-5.26,24.91-10.46,49.83-15.77,74.73-4.74,22.22-18.24,42.48-35.89,57.04-17.79,14.68-40.01,23.7-62.18,23.7H53.31c-3.89,0-6.29-2.99-5.49-6.75,10.63-49.56,20.93-99.18,31.55-148.73,10.64-49.6,21.15-99.18,31.78-148.76.8-3.76,4.57-6.78,8.23-6.78ZM323.06,328.63c4.12-18.91,8-37.88,12.12-56.79,4.12-18.91,8-37.88,12.12-56.83,3.2-14.8-6.4-26.94-21.03-26.94h-121.16c-5.94,27.93-12.12,55.86-18.06,83.76-5.94,27.9-11.88,55.83-17.83,83.72h121.16c14.63,0,29.49-12.13,32.69-26.93Z"/>
    <path class="cls-10" d="M499.16,116.3h94.16c3.67,0,6.01,3.05,5.21,6.78-10.59,49.61-21.13,99.16-31.65,148.76-10.51,49.56-21.04,99.15-31.45,148.73-.78,3.73-4.44,6.75-8.3,6.75h-93.97c-3.86,0-6.17-3.02-5.4-6.75,10.42-49.58,20.94-99.17,31.45-148.73,10.52-49.6,21.06-99.15,31.65-148.76.8-3.73,4.63-6.78,8.3-6.78Z"/>
    <path class="cls-16" d="M642.03,140.03c17.56-14.62,39.95-23.73,62.14-23.73h268.98c3.86,0,6.17,3.05,5.4,6.78-4.05,19.41-8.3,38.82-12.35,58.22-.77,3.73-4.43,6.78-8.1,6.78h-215.15c-15.05,0-29.72,12.13-32.8,26.94-4.05,18.94-8.2,37.89-12.16,56.83-3.95,18.89-7.91,37.88-11.97,56.79-3.09,14.8,6.17,26.93,21.23,26.93h114.42c3.47-15.95,6.75-31.91,10.23-47.86h-86.83c-3.86,0-6.17-3.05-5.4-6.78,4.25-19.38,8.3-38.79,12.35-58.19.96-3.73,4.44-6.78,8.3-6.78h187.55c3.67,0,6.17,3.05,5.21,6.78-6.18,29.64-12.45,59.3-18.72,88.92-6.27,29.66-12.54,59.28-18.91,88.92-.78,3.73-4.63,6.75-8.3,6.75h-268.98c-22.19,0-40.66-9.13-51.91-23.7-11.32-14.66-16.21-34.84-11.57-57.04,5.4-24.91,10.52-49.84,15.82-74.73,5.31-24.94,10.62-49.83,16.02-74.77,4.63-22.21,17.94-42.42,35.5-57.04Z"/>
    <path class="cls-15" d="M1047.34,411.47l15.25-42.31c4.26-20.18,8.53-40.35,12.81-60.52l-52.16-49.41-21.15-20.04,25.82-13.51,73.27-38.33c3.38-15.88,6.75-31.75,10.13-47.63l-2.74-23.41h-93.09c-3.67,0-7.5,3.05-8.3,6.78-10.59,49.61-21.13,99.16-31.65,148.76-10.51,49.55-21.03,99.15-31.45,148.73-.77,3.73,1.54,6.75,5.4,6.75h92.15l5.71-15.85Z"/>
    <g>
      <path class="cls-18" d="M1473.45,223.51l10.96,19.72c-29.26,18.84-98.16,53.6-235.28,78.8,0,0,40.89,6.64,105.61,2.89-6.75,11.55-15.68,22.26-26.71,31.46-46.71,38.94-113.23,36.12-148.58-6.29-15.65-18.77-22.55-42.15-21.35-65.76,46.17-2.22,102.37-12.24,168.93-36.21,0,0-82.64,20.12-165.71,15.18,5.75-22.46,18.81-43.92,38.69-60.49,40.16-33.48,94.95-36.06,132-9.18-30.76,11.79-67.68,21.8-112.07,28.61,0,0,57.61-.69,123.47-18.81,1.79,1.81,3.53,3.68,5.19,5.67,9.6,11.52,15.89,24.77,19.06,38.75,20.12-7.29,47.22-17.54,70.18-27.75-5.21-20.29-14.74-39.51-28.77-56.35-55.15-66.16-158.93-70.55-231.8-9.81-72.87,60.74-87.23,163.62-32.08,229.78,55.15,66.16,158.93,70.55,231.8,9.81,25.93-21.62,44.44-48.58,55.06-77.31,25.83-4.31,53.53-10.35,82.53-18.72l11.62,20.91,58.12-94.29-110.85-.61Z"/>
      <g class="cls-34">
        <path class="cls-27" d="M1354.74,324.93s50.6-3.74,77.29-8.7c26.69-4.96,39.22,26.58,39.22,26.58l85.18,8.19,82.49-68.77-10.57-66.34-94.7-34.23s-33.77,8.36-51.25,15.61c-17.48,7.25-33.7,36.91-33.7,36.91l-11.82,15.94-85.54,30.11s-72.17,21.6-87.67,26.76c-15.5,5.16-39.11,11.9-39.11,11.9l16.49,32.88s95.13-15.57,113.68-26.84Z"/>
        <path class="cls-7" d="M1410.62,255.38s-1.5-78.84-85.09-108.71c-87.98-31.44-198.23,55.83-189.29,146.45,8.94,90.62,72,136.42,166.89,118.89,94.9-17.53,128.9-95.78,128.9-95.78l-6.42,100.73-21.46,45.88s-318.86,40.97-355.12-28.78c-36.26-69.74,29.87-313.46,63.76-334.28,33.9-20.83,266.26-42.31,296-14.09,29.74,28.22,55.49,146.28,44.85,155.62-10.63,9.34-43.02,14.07-43.02,14.07Z"/>
        <path class="cls-30" d="M1249.13,322.03s204.06-7.1,335.17-97.91l-.54-20.75-113.89,10.23-16.85,14.04-203.89,94.39Z"/>
      </g>
      <path class="cls-24" d="M1135.67,168.85s18.8-29.14,65.15-53.64l-73.3-15.92,8.15,69.56Z"/>
      <path class="cls-12" d="M1146.75,419.75s-30.11-25.61-50.84-81.68l-28.99,80.45,79.83,1.23Z"/>
      <path class="cls-25" d="M1389.93,114.47s32.76,19.75,61.34,70.04l15.1-81.36-76.43,11.32Z"/>
      <path class="cls-13" d="M1431.21,363.62s-16.3,33.14-62.33,64.77l79.51,7.82-17.18-72.6Z"/>
      <g class="cls-17">
        <path class="cls-6" d="M1466.36,103.15s-30.23,24.57-52.7,50.6l-38.13-44.05,9.58-24.42,62.9.99s31.61,2.31,18.35,16.89Z"/>
      </g>
      <path class="cls-23" d="M1291.71,457.54s-37.27,8.6-92.78-7.66l45.75,68.95,47.03-61.3Z"/>
      <g class="cls-29">
        <path class="cls-4" d="M1244.67,518.84s4.63-38.68,2.66-73.01l58.04,5.13,10.11,24.21-45.87,43.04s-24.32,20.33-24.93.63Z"/>
      </g>
      <path class="cls-31" d="M1341.86,96.8s-36.34-11.94-93.1-.79l51.81-64.52,41.29,65.31Z"/>
      <g class="cls-22">
        <path class="cls-5" d="M1300.4,33.04s-4.65,38.68-2.7,73.01l-58.03-5.16-10.09-24.21,45.89-43.02s24.32-20.32,24.93-.62Z"/>
      </g>
      <g class="cls-9">
        <path class="cls-8" d="M1127.52,99.29s21.16,27.84,38.63,42.28l-33.28,38.91-5.88-21.27-3.67-35.06,4.21-24.86Z"/>
      </g>
      <path class="cls-26" d="M1094.22,297.81s-4.74-38.36,17.41-92.45l-74.09,38.76,56.68,53.69Z"/>
      <g class="cls-21">
        <path class="cls-3" d="M1037.54,244.11s38,8.7,63.26,8.57l-.67,57.08-20.23-13.99-28.2-27.38-14.16-24.28Z"/>
      </g>
      <g class="cls-1">
        <path class="cls-28" d="M1040.96,436.09s49.03-34.73,83.72-51.53c34.69-16.8,56.68,68.03,56.68,68.03l-91.03,11.66-49.37-28.16Z"/>
      </g>
      <g class="cls-2">
        <path class="cls-19" d="M1457.98,444.18s-34.1-27.35-52.79-48.25c-18.69-20.91,36.25-53.26,36.25-53.26l26.36,61.34-9.83,40.17Z"/>
      </g>
    </g>
    <g>
      <path class="cls-33" d="M1584.42,203.32l21.83.12c1.68-7.97,3.35-15.95,5.07-23.91,4.05-18.79,7.91-37.63,11.97-56.45.77-3.73-1.54-6.78-5.21-6.78h-94.17c-3.67,0-7.34,3.05-8.11,6.78-5.69,26.6-11.35,53.18-16.99,79.76l85.62.47Z"/>
      <path class="cls-20" d="M1866.98,116.3h-94.17c-3.67,0-7.33,3.05-8.1,6.78-4.05,18.82-7.91,37.66-11.96,56.45-4.05,18.79-7.91,37.63-11.97,56.42h-139.33l-57.57,93.39-18.65,30.25-17.26-31.06-3.67-6.6c-10.72,2.84-21.54,5.42-32.4,7.78-4.31,20.34-8.62,40.68-12.91,61.02l8.66,36.58h84.21c3.86,0,7.53-3.02,8.3-6.75,4.05-18.79,7.91-37.63,11.97-56.42,4.05-18.79,7.91-37.64,11.96-56.45h141.43c-4.05,18.82-7.91,37.67-11.96,56.45-4.05,18.79-7.91,37.63-11.97,56.42-.77,3.73,1.35,6.75,5.21,6.75h93.97c3.86,0,7.52-3.02,8.3-6.75,10.42-49.58,20.94-99.17,31.45-148.73,10.52-49.6,21.03-99.15,31.64-148.76.77-3.73-1.54-6.78-5.21-6.78Z"/>
    </g>
  </g>
  <g>
    <path class="cls-11" d="M119.65,547.82c-1.41-1.35-3.4-2.38-5.99-3.07-2.58-.69-5.92-1.04-10.02-1.04h-26.63l-1.61,11.51h0l-5.91,42.21h27.32c4.3,0,7.93-.35,10.9-1.04,2.97-.69,5.42-1.71,7.37-3.07,1.94-1.35,3.43-3.06,4.45-5.1,1.02-2.05,1.74-4.42,2.15-7.14.41-2.66.19-5.01-.65-7.06-.74-1.79-1.94-3.29-3.56-4.53.81-.76,1.55-1.57,2.18-2.45,1.46-2.05,2.37-4.4,2.72-7.06.41-2.71.41-5.08,0-7.1-.41-2.02-1.32-3.71-2.72-5.07ZM101.26,555.22c1.48,0,2.76.1,3.84.31,1.07.21,1.92.49,2.53.84.61.36,1.05.84,1.31,1.46.26.61.33,1.33.23,2.15-.15.87-.42,1.61-.81,2.23-.38.61-.95,1.11-1.69,1.5-.74.38-1.66.67-2.76.84-1.1.18-2.42.27-3.95.27h-13.09l1.34-9.59h13.05ZM108.48,581.09c-.15.87-.44,1.61-.84,2.23-.41.61-1.02,1.11-1.84,1.5-.82.38-1.83.67-3.03.84-1.2.18-2.65.27-4.34.27h-14.51l1.34-9.59h14.62c1.59,0,2.94.1,4.07.31,1.12.21,2.06.51,2.8.92.74.41,1.25.9,1.54,1.46.28.56.35,1.25.19,2.07Z"/>
    <path class="cls-11" d="M159.75,557.91c-6.55,0-11.79,1.75-15.73,5.26-3.94,3.5-6.37,8.53-7.29,15.08-.92,6.7.15,11.77,3.22,15.2,3.07,3.43,8.24,5.14,15.5,5.14,6.04,0,10.81-1.3,14.31-3.91,3.5-2.61,5.56-6.04,6.18-10.29h-10.82c-.1.56-.37,1.11-.81,1.65-.44.54-1.02,1-1.77,1.38-.74.38-1.6.69-2.57.92-.97.23-2.02.35-3.15.35-1.43,0-2.69-.18-3.76-.54-1.07-.36-1.95-.95-2.61-1.76-.67-.82-1.11-1.89-1.34-3.22-.08-.45-.11-.94-.13-1.46h27.8l.23-1.54c1.02-7.47.22-13.05-2.42-16.73-2.64-3.68-7.59-5.53-14.85-5.53ZM150.63,573.41c.56-1.18,1.25-2.19,2.05-2.99.87-.87,1.84-1.52,2.92-1.96,1.07-.43,2.2-.65,3.38-.65s2.26.17,3.26.5c1,.33,1.8.83,2.42,1.5.61.67,1.05,1.52,1.3,2.57.08.33.13.68.16,1.04h-15.5Z"/>
    <path class="cls-11" d="M211.93,580.87l-8.36-21.81h-13.74l14.4,37.63-.44.9c-.56,1.23-1.1,2.31-1.61,3.26-.51.95-.99,1.74-1.42,2.38-.44.64-.88,1.12-1.34,1.46-.46.33-1,.5-1.61.5-.41,0-.79-.07-1.15-.19-.36-.13-.65-.38-.88-.77-.23-.38-.4-.9-.5-1.53-.1-.64-.08-1.45.08-2.42h-10.28c-.31,2.1-.32,4.05-.04,5.87.28,1.82.87,3.39,1.77,4.72.89,1.33,2.15,2.37,3.76,3.11,1.61.74,3.57,1.11,5.87,1.11,3.17,0,5.78-.44,7.83-1.3,2.05-.87,3.81-2.15,5.3-3.84,1.48-1.69,2.83-3.72,4.03-6.1,1.2-2.38,2.52-5.05,3.95-8.02l17.88-36.76h-12.89l-10.6,21.81Z"/>
    <path class="cls-11" d="M270.42,557.91c-7.37,0-13.07,1.71-17.12,5.14-4.04,3.43-6.55,8.49-7.52,15.2-.92,6.7.17,11.77,3.26,15.2,3.1,3.43,8.33,5.14,15.7,5.14s13.17-1.71,17.27-5.14c4.09-3.43,6.6-8.49,7.52-15.2.97-6.7-.1-11.77-3.22-15.2-3.12-3.43-8.42-5.14-15.89-5.14ZM277.02,578.25c-.41,3.02-1.51,5.3-3.3,6.83-1.79,1.54-4.27,2.3-7.44,2.3s-5.33-.77-6.64-2.3c-1.31-1.54-1.75-3.81-1.34-6.83.41-3.02,1.43-5.3,3.07-6.83,1.64-1.53,4.14-2.3,7.52-2.3,3.17,0,5.42.77,6.75,2.3,1.33,1.54,1.79,3.81,1.38,6.83Z"/>
    <path class="cls-11" d="M344.75,561.82c-1.15-1.43-2.67-2.44-4.57-3.03-1.89-.59-4.12-.88-6.68-.88s-5.04.5-7.14,1.5c-2.1,1-3.9,2.39-5.41,4.18-.16.19-.3.39-.45.58l.72-5.11h-12.13l-5.37,38.38h12.13l2.68-19.11v-.08c.42-3.07,1.44-5.36,3.08-6.87,1.64-1.51,3.79-2.26,6.45-2.26,1.54,0,2.76.19,3.68.58s1.61.95,2.07,1.69c.46.74.73,1.64.81,2.69.08,1.05.01,2.29-.19,3.72l-2.76,19.65h12.13l2.92-20.95c.51-3.58.6-6.56.27-8.94-.33-2.38-1.07-4.28-2.23-5.72Z"/>
    <path class="cls-11" d="M394.02,564.28c-.1-.27-.19-.55-.3-.81-.79-1.77-2.03-3.13-3.72-4.11-1.69-.97-3.97-1.46-6.83-1.46-5.42,0-9.97,1.71-13.62,5.14-3.66,3.43-5.97,8.49-6.95,15.2-.46,3.33-.41,6.25.15,8.79.56,2.53,1.54,4.66,2.92,6.37,1.38,1.71,3.11,3.01,5.18,3.88s4.39,1.3,6.95,1.3c2.87,0,5.27-.55,7.21-1.65,1.94-1.1,3.54-2.57,4.8-4.41.12-.18.23-.37.34-.56l-.77,5.47h12.13l8.06-57.56h-12.13l-3.42,24.41ZM389,585.08c-1.64,1.54-3.89,2.3-6.75,2.3s-4.81-.77-5.99-2.3c-1.18-1.54-1.56-3.81-1.15-6.83.2-1.54.54-2.87,1-3.99.46-1.12,1.06-2.07,1.8-2.84.74-.77,1.69-1.34,2.84-1.73s2.52-.58,4.11-.58c2.87,0,4.89.75,6.06,2.26,1.18,1.51,1.56,3.8,1.15,6.87-.41,3.02-1.43,5.3-3.07,6.83Z"/>
    <polygon class="cls-11" points="463.29 543.71 458.15 543.71 450.63 597.43 455.77 597.43 463.44 597.43 495.14 597.43 496.75 585.92 465.06 585.92 466.4 576.33 494.3 576.33 495.91 564.82 468.01 564.82 469.35 555.22 500.28 555.22 501.9 543.71 470.96 543.71 463.29 543.71"/>
    <polygon class="cls-11" points="542.8 559.06 533.95 568.85 527.84 559.06 513.48 559.06 525.46 578.25 508.11 597.43 522.46 597.43 531.32 587.64 537.43 597.43 551.78 597.43 539.81 578.25 557.15 559.06 542.8 559.06"/>
    <path class="cls-11" d="M606.7,563.09c-1.25-1.71-2.87-3-4.83-3.88-1.97-.87-4.23-1.3-6.79-1.3-2.71,0-4.99.49-6.83,1.46-1.84.97-3.38,2.34-4.6,4.11-.18.25-.33.53-.5.8l.73-5.21h-12.13l-7.52,53.72h12.13l2.91-20.76c.06.17.1.34.16.5.72,1.84,1.84,3.31,3.38,4.41,1.54,1.1,3.66,1.65,6.37,1.65,2.4,0,4.72-.44,6.95-1.3s4.22-2.16,5.99-3.88c1.77-1.71,3.26-3.84,4.49-6.37,1.23-2.53,2.07-5.46,2.53-8.79.46-3.33.49-6.25.08-8.79-.41-2.53-1.24-4.66-2.49-6.37ZM596.6,578.25c-.21,1.48-.56,2.8-1.07,3.95-.51,1.15-1.14,2.11-1.88,2.88-.74.77-1.62,1.34-2.65,1.73-1.02.38-2.15.58-3.38.58-2.56,0-4.37-.77-5.45-2.3s-1.41-3.81-1-6.83c.41-3.07,1.38-5.36,2.92-6.87,1.53-1.51,3.58-2.26,6.14-2.26,2.81,0,4.68.75,5.6,2.26.92,1.51,1.18,3.8.77,6.87Z"/>
    <path class="cls-11" d="M647.49,557.91c-6.55,0-11.79,1.75-15.73,5.26-3.94,3.5-6.37,8.53-7.29,15.08-.92,6.7.15,11.77,3.22,15.2,3.07,3.43,8.24,5.14,15.5,5.14,6.04,0,10.81-1.3,14.31-3.91,3.5-2.61,5.56-6.04,6.18-10.29h-10.82c-.1.56-.37,1.11-.81,1.65-.44.54-1.02,1-1.77,1.38-.74.38-1.6.69-2.57.92-.97.23-2.02.35-3.15.35-1.43,0-2.69-.18-3.76-.54-1.07-.36-1.95-.95-2.61-1.76-.67-.82-1.11-1.89-1.34-3.22-.08-.45-.11-.94-.13-1.46h27.8l.23-1.54c1.02-7.47.22-13.05-2.42-16.73-2.64-3.68-7.59-5.53-14.85-5.53ZM638.37,573.41c.56-1.18,1.25-2.19,2.05-2.99.87-.87,1.84-1.52,2.92-1.96,1.07-.43,2.2-.65,3.38-.65s2.26.17,3.26.5c1,.33,1.8.83,2.42,1.5.61.67,1.05,1.52,1.3,2.57.08.33.13.68.16,1.04h-15.5Z"/>
    <path class="cls-11" d="M717.79,562.71c-1.38-1.51-3.17-2.69-5.37-3.53-2.2-.84-4.84-1.27-7.91-1.27-7.42,0-13.06,1.7-16.92,5.1-3.86,3.4-6.28,8.48-7.25,15.23-.92,6.7.19,11.77,3.34,15.2,3.15,3.43,8.25,5.14,15.31,5.14,3.22,0,6.09-.42,8.6-1.27,2.51-.84,4.64-2.02,6.41-3.53,1.77-1.51,3.17-3.26,4.22-5.26,1.05-2,1.73-4.14,2.03-6.45h-10.82c-.15.82-.44,1.56-.84,2.23-.41.67-.95,1.22-1.61,1.65-.67.43-1.5.78-2.49,1.04-1,.26-2.11.38-3.34.38-1.38,0-2.64-.15-3.76-.46-1.13-.31-2.07-.82-2.84-1.54-.77-.72-1.3-1.67-1.61-2.88-.31-1.2-.33-2.65-.08-4.34.26-1.69.68-3.11,1.27-4.26.59-1.15,1.32-2.08,2.19-2.8.87-.72,1.87-1.23,2.99-1.54,1.12-.31,2.33-.46,3.61-.46s2.3.13,3.22.38c.92.26,1.7.6,2.34,1.04.64.43,1.1.99,1.38,1.65.28.67.35,1.41.19,2.23h10.9c.31-2.3.2-4.45-.31-6.45-.51-2-1.46-3.75-2.84-5.26Z"/>
    <path class="cls-11" d="M759.31,543.71h-7.06l-7.21,15.35h-7.67l-1.46,10.9h7.6l-1.84,13.12c-.36,2.61-.36,4.89,0,6.83.36,1.95,1.09,3.57,2.19,4.87,1.1,1.3,2.57,2.26,4.41,2.88,1.84.61,4.09.92,6.75.92,2.46,0,4.69-.26,6.72-.77,2.02-.51,3.79-1.38,5.3-2.61,1.51-1.23,2.76-2.85,3.76-4.87,1-2.02,1.7-4.51,2.11-7.48h-10.9c-.15.87-.37,1.6-.65,2.19-.28.59-.63,1.05-1.04,1.38-.41.33-.9.58-1.46.73-.56.15-1.18.23-1.84.23-.72,0-1.29-.11-1.73-.34-.44-.23-.78-.58-1.04-1.04-.26-.46-.41-1.01-.46-1.65-.05-.64,0-1.34.15-2.11l1.71-12.28h18.24l1.46-10.9h-18.18l2.14-15.35Z"/>
    <path class="cls-11" d="M825.43,561.32c-1.46-1.31-3.42-2.2-5.87-2.69s-5.37-.73-8.75-.73c-2.92,0-5.59.26-8.02.77-2.43.51-4.53,1.34-6.29,2.49-1.77,1.15-3.22,2.64-4.38,4.45s-1.91,4.06-2.26,6.71h10.82c.15-1.07.54-1.91,1.15-2.49.61-.59,1.32-1.04,2.11-1.34.79-.31,1.68-.5,2.65-.58.97-.08,1.84-.11,2.61-.11.82,0,1.7.06,2.65.19.95.13,1.82.37,2.61.73.79.36,1.39.9,1.8,1.61.41.72.54,1.69.38,2.92v.04s-13.81,1.27-13.81,1.27c-2.35.21-4.5.55-6.45,1.04-1.95.49-3.65,1.18-5.1,2.07-1.46.9-2.67,2.03-3.65,3.42-.97,1.38-1.59,3.1-1.84,5.14-.36,2.46-.22,4.48.42,6.06.64,1.59,1.64,2.85,2.99,3.8,1.35.95,2.99,1.6,4.91,1.96,1.92.36,4,.54,6.25.54,3.22,0,5.81-.38,7.75-1.15,1.94-.77,3.45-1.8,4.53-3.11.47-.58.88-1.21,1.25-1.88l-.71,4.99h12.2l3.07-22.1c.56-3.53.56-6.42,0-8.67-.56-2.25-1.57-4.03-3.03-5.33ZM814.19,585.77c-.56.56-1.33,1.06-2.3,1.5-.97.43-2.12.78-3.45,1.04-1.33.26-2.87.38-4.6.38-.87,0-1.66-.05-2.38-.15-.72-.1-1.3-.25-1.77-.46-.46-.2-.83-.49-1.11-.84-.28-.36-.37-.77-.27-1.23.05-.61.23-1.11.54-1.5.31-.38.73-.7,1.27-.96.54-.26,1.15-.46,1.84-.61.69-.15,1.5-.25,2.42-.31l11.08-.98-.41,2.88c-.17.43-.45.84-.85,1.24Z"/>
    <path class="cls-11" d="M868.14,543.71h-7.06l-7.21,15.35h-7.67l-1.46,10.9h7.6l-1.84,13.12c-.36,2.61-.36,4.89,0,6.83.36,1.95,1.09,3.57,2.19,4.87,1.1,1.3,2.57,2.26,4.41,2.88,1.84.61,4.09.92,6.75.92,2.46,0,4.69-.26,6.72-.77,2.02-.51,3.79-1.38,5.3-2.61,1.51-1.23,2.76-2.85,3.76-4.87,1-2.02,1.7-4.51,2.11-7.48h-10.9c-.15.87-.37,1.6-.65,2.19-.28.59-.63,1.05-1.04,1.38-.41.33-.9.58-1.46.73-.56.15-1.18.23-1.84.23-.72,0-1.29-.11-1.73-.34-.44-.23-.78-.58-1.04-1.04-.26-.46-.41-1.01-.46-1.65-.05-.64,0-1.34.15-2.11l1.71-12.28h18.24l1.46-10.9h-18.18l2.14-15.35Z"/>
    <path class="cls-11" d="M909.43,540.33c-2.51,0-4.4.58-5.68,1.73-1.28,1.15-2.07,2.93-2.38,5.33-.36,2.41-.06,4.18.88,5.33.95,1.15,2.67,1.73,5.18,1.73s4.39-.58,5.64-1.73c1.25-1.15,2.06-2.93,2.42-5.33.31-2.4,0-4.18-.92-5.33s-2.64-1.73-5.14-1.73Z"/>
    <polygon class="cls-11" points="895.31 597.43 907.44 597.43 912.81 559.06 900.68 559.06 895.31 597.43"/>
    <path class="cls-11" d="M951.64,557.91c-7.37,0-13.07,1.71-17.12,5.14-4.04,3.43-6.55,8.49-7.52,15.2-.92,6.7.17,11.77,3.26,15.2,3.1,3.43,8.33,5.14,15.7,5.14s13.17-1.71,17.27-5.14c4.09-3.43,6.6-8.49,7.52-15.2.97-6.7-.1-11.77-3.22-15.2-3.12-3.43-8.42-5.14-15.89-5.14ZM958.24,578.25c-.41,3.02-1.51,5.3-3.3,6.83-1.79,1.54-4.27,2.3-7.44,2.3s-5.33-.77-6.64-2.3c-1.31-1.54-1.75-3.81-1.34-6.83.41-3.02,1.43-5.3,3.07-6.83,1.64-1.53,4.14-2.3,7.52-2.3,3.17,0,5.42.77,6.75,2.3,1.33,1.54,1.79,3.81,1.38,6.83Z"/>
    <path class="cls-11" d="M1025.97,561.82c-1.15-1.43-2.67-2.44-4.57-3.03-1.89-.59-4.12-.88-6.68-.88s-5.04.5-7.14,1.5c-2.1,1-3.9,2.39-5.41,4.18-.16.18-.3.39-.45.58l.72-5.11h-12.13l-5.37,38.38h12.13l2.69-19.19c.41-3.07,1.43-5.36,3.07-6.87,1.64-1.51,3.79-2.26,6.45-2.26,1.54,0,2.76.19,3.68.58s1.61.95,2.07,1.69c.46.74.73,1.64.81,2.69.08,1.05.01,2.29-.19,3.72l-2.76,19.65h12.13l2.92-20.95c.51-3.58.6-6.56.27-8.94-.33-2.38-1.07-4.28-2.23-5.72Z"/>
    <path class="cls-11" d="M1079.78,561.25c-2.79-2.23-7.64-3.34-14.54-3.34-3.33,0-6.19.23-8.6.69-2.41.46-4.41,1.22-6.02,2.26-1.61,1.05-2.87,2.35-3.76,3.91-.9,1.56-1.52,3.44-1.88,5.64-.31,2.56-.03,4.63.84,6.22.87,1.59,2.14,2.83,3.8,3.72,1.66.9,3.54,1.56,5.64,2,2.1.43,4.17.75,6.22.96,1.69.21,3.18.37,4.49.5,1.3.13,2.39.29,3.26.5.87.21,1.5.46,1.88.77.38.31.52.72.42,1.23,0,.31-.15.61-.46.92s-.73.56-1.27.77c-.54.21-1.22.37-2.03.5-.82.13-1.79.19-2.92.19-1.84,0-3.47-.08-4.87-.23-1.41-.15-2.58-.38-3.53-.69-.95-.31-1.64-.74-2.07-1.3-.44-.56-.6-1.25-.5-2.07h-10.9c-.72,5.02.41,8.63,3.38,10.86,2.97,2.23,8.03,3.34,15.2,3.34,5.94,0,10.6-.97,14.01-2.92,3.4-1.94,5.41-5.17,6.03-9.67.36-2.61.17-4.66-.58-6.14-.74-1.48-1.88-2.65-3.42-3.49-1.54-.84-3.4-1.46-5.6-1.84-2.2-.38-4.61-.75-7.21-1.11-1.74-.26-3.22-.5-4.45-.73-1.23-.23-2.25-.47-3.07-.73-.82-.26-1.42-.54-1.8-.84s-.55-.64-.5-1c.05-.25.19-.52.42-.81.23-.28.58-.54,1.04-.77.46-.23,1.07-.41,1.84-.54.77-.13,1.76-.19,2.99-.19,2,0,3.7.08,5.1.23,1.41.15,2.57.38,3.49.69.92.31,1.56.73,1.92,1.27.36.54.46,1.24.31,2.11h10.82c.72-5.01-.32-8.63-3.11-10.86Z"/>
    <path class="cls-11" d="M1103.53,585.77c-2.25,0-3.94.54-5.07,1.61-1.13,1.08-1.84,2.69-2.15,4.84-.36,2.1-.13,3.66.69,4.68.82,1.02,2.3,1.58,4.45,1.69-.51,1.43-1.27,2.87-2.26,4.3-1,1.43-2.52,2.97-4.57,4.61l1.15,2.07c2.1-.72,3.94-1.73,5.53-3.03,1.58-1.3,2.92-2.75,3.99-4.34,1.07-1.59,1.92-3.25,2.53-4.99.61-1.74,1.02-3.4,1.23-4.99.31-2.15.02-3.76-.84-4.84-.87-1.07-2.43-1.61-4.68-1.61Z"/>
    <path class="cls-11" d="M1206.03,547.82c-1.41-1.35-3.4-2.38-5.99-3.07-2.58-.69-5.92-1.04-10.02-1.04h-26.63l-1.61,11.51h0l-4.3,30.7h0l-1.61,11.51h27.32c4.3,0,7.93-.35,10.9-1.04,2.97-.69,5.42-1.71,7.37-3.07,1.94-1.35,3.43-3.06,4.45-5.1,1.02-2.05,1.74-4.42,2.15-7.14.41-2.66.19-5.01-.65-7.06-.74-1.79-1.94-3.29-3.56-4.53.81-.76,1.55-1.57,2.18-2.45,1.46-2.05,2.37-4.4,2.72-7.06.41-2.71.41-5.08,0-7.1-.41-2.02-1.32-3.71-2.72-5.07ZM1187.65,555.22c1.48,0,2.76.1,3.84.31,1.07.21,1.92.49,2.53.84.61.36,1.05.84,1.3,1.46.25.61.33,1.33.23,2.15-.15.87-.42,1.61-.81,2.23-.38.61-.95,1.11-1.69,1.5-.74.38-1.66.67-2.76.84-1.1.18-2.42.27-3.95.27h-13.09l1.34-9.59h13.05ZM1194.86,581.09c-.15.87-.44,1.61-.84,2.23-.41.61-1.02,1.11-1.84,1.5-.82.38-1.83.67-3.03.84-1.2.18-2.65.27-4.34.27h-14.51l1.34-9.59h14.62c1.58,0,2.94.1,4.07.31,1.12.21,2.06.51,2.8.92.74.41,1.25.9,1.54,1.46.28.56.34,1.25.19,2.07Z"/>
    <path class="cls-11" d="M1246.13,557.91c-6.55,0-11.79,1.75-15.73,5.26-3.94,3.5-6.37,8.53-7.29,15.08-.92,6.7.15,11.77,3.22,15.2,3.07,3.43,8.24,5.14,15.5,5.14,6.04,0,10.81-1.3,14.31-3.91,3.5-2.61,5.56-6.04,6.18-10.29h-10.82c-.1.56-.37,1.11-.81,1.65-.44.54-1.02,1-1.76,1.38-.74.38-1.6.69-2.57.92-.97.23-2.02.35-3.15.35-1.43,0-2.69-.18-3.76-.54-1.08-.36-1.95-.95-2.61-1.76s-1.11-1.89-1.34-3.22c-.08-.45-.11-.94-.13-1.46h27.8l.23-1.54c1.02-7.47.22-13.05-2.42-16.73-2.64-3.68-7.59-5.53-14.85-5.53ZM1237.01,573.41c.56-1.18,1.24-2.19,2.05-2.99.87-.87,1.84-1.52,2.92-1.96s2.2-.65,3.38-.65,2.26.17,3.26.5c1,.33,1.8.83,2.42,1.5.61.67,1.05,1.52,1.3,2.57.08.33.13.68.16,1.04h-15.5Z"/>
    <path class="cls-11" d="M1298.31,580.87l-8.36-21.81h-13.74l14.4,37.63-.44.9c-.56,1.23-1.1,2.31-1.61,3.26-.51.95-.99,1.74-1.42,2.38-.43.64-.88,1.12-1.34,1.46-.46.33-1,.5-1.61.5-.41,0-.79-.07-1.15-.19-.36-.13-.65-.38-.88-.77s-.4-.9-.5-1.53c-.1-.64-.08-1.45.08-2.42h-10.29c-.31,2.1-.32,4.05-.04,5.87.28,1.82.87,3.39,1.77,4.72.89,1.33,2.15,2.37,3.76,3.11,1.61.74,3.57,1.11,5.87,1.11,3.17,0,5.78-.44,7.83-1.3,2.05-.87,3.81-2.15,5.3-3.84,1.48-1.69,2.83-3.72,4.03-6.1,1.2-2.38,2.52-5.05,3.95-8.02l17.88-36.76h-12.89l-10.6,21.81Z"/>
    <path class="cls-11" d="M1356.8,557.91c-7.37,0-13.07,1.71-17.12,5.14-4.04,3.43-6.55,8.49-7.52,15.2-.92,6.7.17,11.77,3.26,15.2,3.09,3.43,8.33,5.14,15.7,5.14s13.17-1.71,17.27-5.14c4.09-3.43,6.6-8.49,7.52-15.2.97-6.7-.1-11.77-3.22-15.2-3.12-3.43-8.42-5.14-15.89-5.14ZM1363.4,578.25c-.41,3.02-1.51,5.3-3.3,6.83-1.79,1.54-4.27,2.3-7.45,2.3s-5.33-.77-6.64-2.3-1.75-3.81-1.34-6.83c.41-3.02,1.43-5.3,3.07-6.83,1.64-1.53,4.14-2.3,7.52-2.3,3.17,0,5.42.77,6.75,2.3,1.33,1.54,1.79,3.81,1.38,6.83Z"/>
    <path class="cls-11" d="M1431.13,561.82c-1.15-1.43-2.67-2.44-4.57-3.03-1.89-.59-4.12-.88-6.68-.88s-5.04.5-7.14,1.5c-2.1,1-3.9,2.39-5.41,4.18-.16.18-.3.39-.45.58l.72-5.11h-12.13l-5.37,38.38h12.13l2.69-19.19c.41-3.07,1.43-5.36,3.07-6.87,1.64-1.51,3.79-2.26,6.45-2.26,1.54,0,2.76.19,3.68.58s1.61.95,2.07,1.69c.46.74.73,1.64.81,2.69.08,1.05.01,2.29-.19,3.72l-2.76,19.65h12.13l2.92-20.95c.51-3.58.6-6.56.27-8.94-.33-2.38-1.07-4.28-2.23-5.72Z"/>
    <path class="cls-11" d="M1480.4,564.28c-.1-.27-.19-.55-.31-.81-.79-1.77-2.03-3.13-3.72-4.11-1.69-.97-3.97-1.46-6.83-1.46-5.42,0-9.97,1.71-13.62,5.14-3.66,3.43-5.97,8.49-6.95,15.2-.46,3.33-.41,6.25.15,8.79.56,2.53,1.53,4.66,2.92,6.37,1.38,1.71,3.11,3.01,5.18,3.88s4.39,1.3,6.95,1.3c2.86,0,5.27-.55,7.21-1.65,1.94-1.1,3.54-2.57,4.8-4.41.12-.18.23-.37.34-.56l-.77,5.47h12.13l8.06-57.56h-12.13l-3.42,24.41ZM1475.38,585.08c-1.64,1.54-3.89,2.3-6.75,2.3s-4.81-.77-5.99-2.3c-1.18-1.54-1.56-3.81-1.15-6.83.2-1.54.54-2.87,1-3.99.46-1.12,1.06-2.07,1.8-2.84.74-.77,1.69-1.34,2.84-1.73,1.15-.38,2.52-.58,4.11-.58,2.87,0,4.89.75,6.06,2.26,1.18,1.51,1.56,3.79,1.15,6.86v.02c-.41,3.01-1.44,5.29-3.07,6.82Z"/>
    <polygon class="cls-11" points="1549.67 543.71 1544.53 543.71 1537.01 597.43 1542.15 597.43 1549.83 597.43 1581.52 597.43 1583.13 585.92 1551.44 585.92 1552.78 576.33 1580.68 576.33 1582.29 564.82 1554.39 564.82 1555.74 555.22 1586.67 555.22 1588.28 543.71 1557.35 543.71 1549.67 543.71"/>
    <polygon class="cls-11" points="1618.02 581.65 1611.61 559.06 1598.25 559.06 1609.15 597.43 1622.51 597.43 1644.07 559.06 1630.72 559.06 1618.02 581.65"/>
    <path class="cls-11" d="M1675.92,557.91c-6.55,0-11.79,1.75-15.73,5.26-3.94,3.5-6.37,8.53-7.29,15.08-.92,6.7.15,11.77,3.22,15.2,3.07,3.43,8.24,5.14,15.5,5.14,6.04,0,10.81-1.3,14.31-3.91,3.5-2.61,5.56-6.04,6.18-10.29h-10.82c-.1.56-.37,1.11-.81,1.65-.44.54-1.02,1-1.76,1.38-.74.38-1.6.69-2.57.92-.97.23-2.02.35-3.15.35-1.43,0-2.69-.18-3.76-.54-1.08-.36-1.95-.95-2.61-1.76s-1.11-1.89-1.34-3.22c-.08-.45-.11-.94-.13-1.46h27.8l.23-1.54c1.02-7.47.22-13.05-2.42-16.73-2.64-3.68-7.59-5.53-14.85-5.53ZM1666.81,573.41c.56-1.18,1.24-2.19,2.05-2.99.87-.87,1.84-1.52,2.92-1.96s2.2-.65,3.38-.65,2.26.17,3.26.5c1,.33,1.8.83,2.42,1.5.61.67,1.05,1.52,1.3,2.57.08.33.13.68.16,1.04h-15.5Z"/>
    <path class="cls-11" d="M1748.64,561.82c-1.15-1.43-2.67-2.44-4.57-3.03-1.89-.59-4.12-.88-6.68-.88s-5.04.5-7.14,1.5c-2.1,1-3.9,2.39-5.41,4.18-.16.18-.3.39-.45.58l.72-5.11h-12.13l-5.37,38.38h12.13l2.69-19.19c.41-3.07,1.43-5.36,3.07-6.87,1.64-1.51,3.79-2.26,6.45-2.26,1.54,0,2.76.19,3.68.58s1.61.95,2.07,1.69c.46.74.73,1.64.81,2.69.08,1.05.01,2.29-.19,3.72l-2.76,19.65h12.13l2.92-20.95c.51-3.58.6-6.56.27-8.94-.33-2.38-1.07-4.28-2.23-5.72Z"/>
    <path class="cls-11" d="M1789.67,543.71h-7.06l-7.21,15.35h-7.67l-1.46,10.9h7.6l-1.84,13.12c-.36,2.61-.36,4.89,0,6.83.36,1.95,1.09,3.57,2.19,4.87,1.1,1.3,2.57,2.26,4.41,2.88s4.09.92,6.75.92c2.46,0,4.69-.26,6.72-.77,2.02-.51,3.79-1.38,5.3-2.61,1.51-1.23,2.76-2.85,3.76-4.87,1-2.02,1.7-4.51,2.11-7.48h-10.9c-.15.87-.37,1.6-.65,2.19-.28.59-.63,1.05-1.04,1.38-.41.33-.9.58-1.46.73-.56.15-1.18.23-1.84.23-.72,0-1.29-.11-1.73-.34-.44-.23-.78-.58-1.04-1.04-.26-.46-.41-1.01-.46-1.65-.05-.64,0-1.34.15-2.11l1.71-12.28h18.24l1.46-10.9h-18.18l2.14-15.35Z"/>
    <path class="cls-11" d="M1857.05,572.11c.72-5.01-.32-8.63-3.11-10.86-2.79-2.23-7.64-3.34-14.54-3.34-3.33,0-6.19.23-8.6.69-2.41.46-4.41,1.22-6.02,2.26-1.61,1.05-2.87,2.35-3.76,3.91-.9,1.56-1.52,3.44-1.88,5.64-.31,2.56-.03,4.63.84,6.22.87,1.59,2.14,2.83,3.8,3.72,1.66.9,3.54,1.56,5.64,2,2.1.43,4.17.75,6.22.96,1.69.21,3.18.37,4.49.5,1.3.13,2.39.29,3.26.5.87.21,1.5.46,1.88.77.38.31.52.72.42,1.23,0,.31-.15.61-.46.92s-.73.56-1.27.77c-.54.21-1.22.37-2.03.5-.82.13-1.79.19-2.92.19-1.84,0-3.47-.08-4.87-.23-1.41-.15-2.58-.38-3.53-.69-.95-.31-1.64-.74-2.07-1.3-.44-.56-.6-1.25-.5-2.07h-10.9c-.72,5.02.41,8.63,3.38,10.86,2.97,2.23,8.03,3.34,15.2,3.34,5.94,0,10.6-.97,14.01-2.92,3.4-1.94,5.41-5.17,6.03-9.67.36-2.61.17-4.66-.58-6.14-.74-1.48-1.88-2.65-3.42-3.49-1.54-.84-3.4-1.46-5.6-1.84-2.2-.38-4.61-.75-7.21-1.11-1.74-.26-3.22-.5-4.45-.73-1.23-.23-2.25-.47-3.07-.73-.82-.26-1.42-.54-1.8-.84s-.55-.64-.5-1c.05-.25.19-.52.42-.81.23-.28.58-.54,1.04-.77.46-.23,1.07-.41,1.84-.54.77-.13,1.76-.19,2.99-.19,2,0,3.7.08,5.1.23,1.41.15,2.57.38,3.49.69.92.31,1.56.73,1.92,1.27.36.54.46,1.24.31,2.11h10.82Z"/>
  </g>
</svg>