<?xml version="1.0" encoding="UTF-8"?>
<svg id="Layer_1" xmlns="http://www.w3.org/2000/svg" xmlns:xlink="http://www.w3.org/1999/xlink" viewBox="0 0 1920 534.67">
  <defs>
    <style>
      .cls-1 {
        clip-path: url(#clippath-6);
      }

      .cls-2 {
        clip-path: url(#clippath-7);
      }

      .cls-3 {
        fill: url(#linear-gradient-20);
      }

      .cls-3, .cls-4, .cls-5, .cls-6, .cls-7, .cls-8 {
        opacity: .3;
      }

      .cls-9 {
        clip-path: url(#clippath-4);
      }

      .cls-10 {
        fill: url(#linear-gradient-2);
      }

      .cls-11 {
        fill: url(#linear-gradient-10);
      }

      .cls-12 {
        fill: url(#linear-gradient-12);
      }

      .cls-4 {
        fill: url(#linear-gradient-15);
      }

      .cls-5 {
        fill: url(#linear-gradient-17);
      }

      .cls-6 {
        fill: url(#linear-gradient-13);
      }

      .cls-13 {
        fill: none;
      }

      .cls-14 {
        fill: url(#linear-gradient-4);
      }

      .cls-15 {
        fill: url(#linear-gradient-3);
      }

      .cls-16 {
        clip-path: url(#clippath-1);
      }

      .cls-17 {
        fill: url(#linear-gradient-5);
      }

      .cls-18 {
        fill: url(#linear-gradient-22);
      }

      .cls-19 {
        fill: url(#linear-gradient-24);
      }

      .cls-20 {
        clip-path: url(#clippath-5);
      }

      .cls-21 {
        clip-path: url(#clippath-3);
      }

      .cls-22 {
        fill: url(#linear-gradient-14);
      }

      .cls-23 {
        fill: url(#linear-gradient-9);
      }

      .cls-24 {
        fill: url(#linear-gradient-11);
      }

      .cls-25 {
        fill: url(#linear-gradient-19);
      }

      .cls-26 {
        fill: url(#linear-gradient-6);
      }

      .cls-7 {
        fill: url(#linear-gradient-7);
      }

      .cls-27 {
        fill: url(#linear-gradient-21);
      }

      .cls-28 {
        clip-path: url(#clippath-2);
      }

      .cls-29 {
        fill: url(#linear-gradient-8);
        opacity: .6;
      }

      .cls-8 {
        fill: url(#linear-gradient-18);
      }

      .cls-30 {
        fill: url(#linear-gradient-16);
      }

      .cls-31 {
        fill: url(#linear-gradient);
      }

      .cls-32 {
        fill: url(#linear-gradient-23);
      }

      .cls-33 {
        clip-path: url(#clippath);
      }
    </style>
    <linearGradient id="linear-gradient" x1="118.84" y1="263.96" x2="840.72" y2="263.96" gradientUnits="userSpaceOnUse">
      <stop offset="0" stop-color="#646464"/>
      <stop offset="1" stop-color="#c1c1c1"/>
    </linearGradient>
    <linearGradient id="linear-gradient-2" x1="118.84" x2="840.72" xlink:href="#linear-gradient"/>
    <linearGradient id="linear-gradient-3" x1="118.84" x2="840.72" xlink:href="#linear-gradient"/>
    <linearGradient id="linear-gradient-4" x1="136.59" y1="263.96" x2="842.89" y2="263.96" xlink:href="#linear-gradient"/>
    <linearGradient id="linear-gradient-5" x1="1339.96" y1="888.97" x2="1589.59" y2="639.34" gradientTransform="translate(-221.98 -405.72) rotate(-1.5)" gradientUnits="userSpaceOnUse">
      <stop offset="0" stop-color="#d4d4d4"/>
      <stop offset=".45" stop-color="#e5e5e5"/>
      <stop offset="1" stop-color="#f6f6f6"/>
    </linearGradient>
    <clipPath id="clippath">
      <path class="cls-13" d="M1472.25,215.52l10.99,19.78c-29.35,18.9-98.46,53.76-235.99,79.04,0,0,41.01,6.66,105.93,2.9-6.77,11.59-15.72,22.33-26.79,31.56-46.85,39.05-113.57,36.23-149.03-6.31-15.69-18.83-22.62-42.28-21.41-65.96,46.31-2.23,102.68-12.27,169.44-36.32,0,0-82.89,20.18-166.2,15.23,5.77-22.52,18.86-44.05,38.8-60.67,40.28-33.58,95.23-36.17,132.39-9.21-30.85,11.83-67.89,21.86-112.41,28.7,0,0,57.78-.7,123.84-18.87,1.79,1.82,3.54,3.7,5.21,5.69,9.63,11.55,15.94,24.85,19.11,38.87,20.18-7.31,47.36-17.59,70.39-27.83-5.23-20.35-14.78-39.63-28.86-56.52-55.32-66.36-159.41-70.76-232.5-9.84-73.09,60.93-87.5,164.11-32.18,230.47,55.32,66.36,159.41,70.76,232.5,9.84,26.01-21.68,44.58-48.72,55.22-77.54,25.91-4.33,53.69-10.38,82.78-18.78l11.65,20.98,58.3-94.58-111.19-.62Z"/>
    </clipPath>
    <linearGradient id="linear-gradient-6" x1="1810.73" y1="697.93" x2="1488.36" y2="760.74" gradientTransform="translate(-221.98 -405.72) rotate(-1.5)" gradientUnits="userSpaceOnUse">
      <stop offset="0" stop-color="#646464"/>
      <stop offset=".12" stop-color="#868686"/>
      <stop offset=".29" stop-color="#b0b0b0"/>
      <stop offset=".38" stop-color="#c1c1c1"/>
      <stop offset=".58" stop-color="#d4d4d4"/>
      <stop offset=".96" stop-color="#f6f6f6"/>
    </linearGradient>
    <linearGradient id="linear-gradient-7" x1="1377.5" y1="574.93" x2="1503.74" y2="847.33" gradientTransform="translate(-221.98 -405.72) rotate(-1.5)" gradientUnits="userSpaceOnUse">
      <stop offset="0" stop-color="#fff"/>
      <stop offset=".12" stop-color="#fff" stop-opacity=".82"/>
      <stop offset=".3" stop-color="#fff" stop-opacity=".58"/>
      <stop offset=".48" stop-color="#fff" stop-opacity=".37"/>
      <stop offset=".64" stop-color="#fff" stop-opacity=".21"/>
      <stop offset=".78" stop-color="#fff" stop-opacity=".09"/>
      <stop offset=".91" stop-color="#fff" stop-opacity=".02"/>
      <stop offset="1" stop-color="#fff" stop-opacity="0"/>
    </linearGradient>
    <linearGradient id="linear-gradient-8" x1="1611.7" y1="678.62" x2="1631.48" y2="743.13" xlink:href="#linear-gradient-7"/>
    <linearGradient id="linear-gradient-9" x1="580.63" y1="-429.14" x2="753.64" y2="-602.15" gradientTransform="translate(706.64 685.36) rotate(-15.46)" xlink:href="#linear-gradient-5"/>
    <linearGradient id="linear-gradient-10" x1="979.58" y1="-6743.32" x2="1176.83" y2="-6940.57" gradientTransform="translate(7911.83 428.26) rotate(-97.9)" xlink:href="#linear-gradient-5"/>
    <linearGradient id="linear-gradient-11" x1="7562.35" y1="1095.01" x2="7753.22" y2="904.14" gradientTransform="translate(246.11 -7422.85) rotate(72.79)" xlink:href="#linear-gradient-5"/>
    <linearGradient id="linear-gradient-12" x1="9027.86" y1="-5604.6" x2="9212.15" y2="-5788.9" gradientTransform="translate(7672.02 -8184.55) rotate(157.9)" xlink:href="#linear-gradient-5"/>
    <clipPath id="clippath-1">
      <path class="cls-13" d="M1388.47,106.15s32.86,19.81,61.52,70.25l15.14-81.61-76.66,11.36Z"/>
    </clipPath>
    <linearGradient id="linear-gradient-13" x1="1177.89" y1="380.69" x2="1209.46" y2="422.3" gradientTransform="translate(192.41 -173.94) rotate(-6.18)" gradientUnits="userSpaceOnUse">
      <stop offset="0" stop-color="#fff" stop-opacity="0"/>
      <stop offset=".09" stop-color="#fff" stop-opacity=".02"/>
      <stop offset=".22" stop-color="#fff" stop-opacity=".09"/>
      <stop offset=".36" stop-color="#fff" stop-opacity=".21"/>
      <stop offset=".52" stop-color="#fff" stop-opacity=".37"/>
      <stop offset=".7" stop-color="#fff" stop-opacity=".58"/>
      <stop offset=".88" stop-color="#fff" stop-opacity=".82"/>
      <stop offset="1" stop-color="#fff"/>
    </linearGradient>
    <linearGradient id="linear-gradient-14" x1="8806.07" y1="-5735.34" x2="8782.03" y2="-5804.11" gradientTransform="translate(11723.93 -362.92) rotate(-151.28)" xlink:href="#linear-gradient-5"/>
    <clipPath id="clippath-2">
      <path class="cls-13" d="M1289.96,450.26s-37.39,8.63-93.06-7.68l45.89,69.16,47.18-61.48Z"/>
    </clipPath>
    <linearGradient id="linear-gradient-15" x1="8149.22" y1="274.7" x2="8180.78" y2="316.31" gradientTransform="translate(6720.25 -5608.17) rotate(129.75)" xlink:href="#linear-gradient-13"/>
    <linearGradient id="linear-gradient-16" x1="10391.9" y1="-2168.74" x2="10356.92" y2="-2232.78" gradientTransform="translate(11686.41 -2056.07) rotate(156.48) scale(1 -1)" xlink:href="#linear-gradient-5"/>
    <clipPath id="clippath-3">
      <path class="cls-13" d="M1340.26,88.43s-36.45-11.98-93.38-.79l51.97-64.72,41.41,65.51Z"/>
    </clipPath>
    <linearGradient id="linear-gradient-17" x1="1032.71" y1="-2663.79" x2="1064.28" y2="-2622.18" gradientTransform="translate(2629.73 2552.44) rotate(-50.22)" xlink:href="#linear-gradient-13"/>
    <clipPath id="clippath-4">
      <path class="cls-13" d="M1133.45,160.7s18.85-29.22,65.34-53.8l-73.52-15.97,8.17,69.77Z"/>
    </clipPath>
    <linearGradient id="linear-gradient-18" x1="536.63" y1="-412.47" x2="576.65" y2="-433.23" gradientTransform="translate(706.64 685.36) rotate(-15.46)" xlink:href="#linear-gradient-13"/>
    <linearGradient id="linear-gradient-19" x1="794" y1="-2925.02" x2="777.47" y2="-2982.84" gradientTransform="translate(3065.05 2564.04) rotate(-55.33)" xlink:href="#linear-gradient-5"/>
    <clipPath id="clippath-5">
      <path class="cls-13" d="M1091.87,290.04s-4.75-38.48,17.47-92.73l-74.32,38.87,56.85,53.85Z"/>
    </clipPath>
    <linearGradient id="linear-gradient-20" x1="731.59" y1="-2939.33" x2="776.2" y2="-2962.48" gradientTransform="translate(3065.05 2564.04) rotate(-55.33)" xlink:href="#linear-gradient-13"/>
    <clipPath id="clippath-6">
      <path class="cls-13" d="M1144.56,412.35s-30.2-25.69-51-81.92l-29.08,80.69,80.08,1.23Z"/>
    </clipPath>
    <linearGradient id="linear-gradient-21" x1="-865.04" y1="-4178.14" x2="-900.28" y2="-4256.72" gradientTransform="translate(2585.24 4437.86) rotate(-8.5)" gradientUnits="userSpaceOnUse">
      <stop offset="0" stop-color="#fff" stop-opacity="0"/>
      <stop offset=".09" stop-color="#fff" stop-opacity=".06"/>
      <stop offset=".27" stop-color="#fff" stop-opacity=".2"/>
      <stop offset=".51" stop-color="#fff" stop-opacity=".44"/>
      <stop offset=".8" stop-color="#fff" stop-opacity=".76"/>
      <stop offset="1" stop-color="#fff"/>
    </linearGradient>
    <clipPath id="clippath-7">
      <path class="cls-13" d="M1429.88,356.06s-16.35,33.24-62.52,64.97l79.75,7.85-17.24-72.81Z"/>
    </clipPath>
    <linearGradient id="linear-gradient-22" x1="2754.2" y1="-9771.1" x2="2733.81" y2="-9816.56" gradientTransform="translate(11482.33 -1156.52) rotate(-114.46)" xlink:href="#linear-gradient-13"/>
    <linearGradient id="linear-gradient-23" x1="1644.53" y1="151.69" x2="1502.72" y2="151.69" gradientTransform="matrix(1,0,0,1,0,0)" xlink:href="#linear-gradient-5"/>
    <linearGradient id="linear-gradient-24" x1="1944.81" y1="263.96" x2="1474.51" y2="263.96" gradientTransform="matrix(1,0,0,1,0,0)" xlink:href="#linear-gradient-5"/>
  </defs>
  <path class="cls-31" d="M114.09,107.99h276.53c22.47,0,40.52,9.2,52.05,23.8,11.62,14.72,16.45,34.93,11.7,57.22-5.33,25-10.55,50.01-15.82,74.99-5.27,24.99-10.49,49.98-15.82,74.96-4.76,22.29-18.3,42.61-36,57.21-17.84,14.72-40.13,23.77-62.37,23.77H47.83c-3.9,0-6.31-3-5.51-6.77,10.66-49.7,20.99-99.48,31.64-149.18,10.67-49.75,21.22-99.48,31.88-149.21.81-3.77,4.59-6.8,8.25-6.8ZM318.39,320.96c4.13-18.97,8.03-38,12.16-56.96,4.13-18.97,8.03-38,12.16-57,3.21-14.85-6.42-27.02-21.1-27.02h-121.53c-5.96,28.01-12.16,56.03-18.12,84.01-5.96,27.98-11.92,55.99-17.88,83.97h121.53c14.68,0,29.58-12.16,32.79-27.01Z"/>
  <path class="cls-10" d="M495.02,107.99h94.45c3.68,0,6.02,3.06,5.23,6.8-10.62,49.76-21.19,99.46-31.74,149.21-10.54,49.7-21.1,99.45-31.54,149.18-.79,3.74-4.46,6.77-8.32,6.77h-94.25c-3.87,0-6.19-3.03-5.42-6.77,10.45-49.73,21-99.47,31.54-149.18,10.55-49.75,21.12-99.45,31.74-149.21.8-3.74,4.64-6.8,8.32-6.8Z"/>
  <path class="cls-15" d="M638.32,131.79c17.62-14.66,40.07-23.8,62.32-23.8h269.79c3.87,0,6.19,3.06,5.42,6.8-4.06,19.47-8.32,38.93-12.39,58.4-.77,3.75-4.45,6.8-8.13,6.8h-215.8c-15.1,0-29.81,12.17-32.9,27.02-4.07,19-8.22,38.01-12.19,57-3.96,18.95-7.94,37.99-12,56.96-3.09,14.85,6.19,27.01,21.29,27.01h114.77c3.48-16,6.78-32,10.26-48.01h-87.1c-3.87,0-6.19-3.06-5.42-6.8,4.26-19.44,8.32-38.9,12.39-58.37.97-3.75,4.45-6.8,8.32-6.8h188.12c3.68,0,6.19,3.06,5.23,6.8-6.2,29.73-12.49,59.48-18.78,89.19-6.29,29.75-12.58,59.46-18.97,89.19-.78,3.74-4.64,6.77-8.32,6.77h-269.79c-22.26,0-40.78-9.15-52.07-23.77-11.35-14.71-16.26-34.94-11.61-57.21,5.42-24.99,10.55-49.99,15.87-74.96,5.33-25.01,10.65-49.98,16.07-74.99,4.64-22.28,18-42.55,35.61-57.22Z"/>
  <path class="cls-14" d="M1044.85,404.04l15.29-42.44c4.28-20.24,8.55-40.47,12.84-60.7l-52.32-49.56-21.22-20.1,25.9-13.55,73.49-38.44c3.39-15.92,6.77-31.85,10.16-47.78l-2.75-23.48h-93.37c-3.68,0-7.53,3.06-8.32,6.8-10.62,49.76-21.19,99.46-31.74,149.21-10.54,49.7-21.09,99.45-31.54,149.17-.77,3.74,1.55,6.77,5.42,6.77h92.43l5.73-15.9Z"/>
  <g>
    <path class="cls-17" d="M1472.25,215.52l10.99,19.78c-29.35,18.9-98.46,53.76-235.99,79.04,0,0,41.01,6.66,105.93,2.9-6.77,11.59-15.72,22.33-26.79,31.56-46.85,39.05-113.57,36.23-149.03-6.31-15.69-18.83-22.62-42.28-21.41-65.96,46.31-2.23,102.68-12.27,169.44-36.32,0,0-82.89,20.18-166.2,15.23,5.77-22.52,18.86-44.05,38.8-60.67,40.28-33.58,95.23-36.17,132.39-9.21-30.85,11.83-67.89,21.86-112.41,28.7,0,0,57.78-.7,123.84-18.87,1.79,1.82,3.54,3.7,5.21,5.69,9.63,11.55,15.94,24.85,19.11,38.87,20.18-7.31,47.36-17.59,70.39-27.83-5.23-20.35-14.78-39.63-28.86-56.52-55.32-66.36-159.41-70.76-232.5-9.84-73.09,60.93-87.5,164.11-32.18,230.47,55.32,66.36,159.41,70.76,232.5,9.84,26.01-21.68,44.58-48.72,55.22-77.54,25.91-4.33,53.69-10.38,82.78-18.78l11.65,20.98,58.3-94.58-111.19-.62Z"/>
    <g class="cls-33">
      <path class="cls-26" d="M1353.18,317.24s50.75-3.75,77.52-8.73c26.77-4.98,39.34,26.66,39.34,26.66l85.44,8.22,82.74-68.98-10.6-66.54-94.98-34.33s-33.87,8.39-51.41,15.66c-17.54,7.28-33.8,37.02-33.8,37.02l-11.85,15.99-85.8,30.2s-72.38,21.66-87.93,26.84c-15.55,5.18-39.23,11.93-39.23,11.93l16.54,32.97s95.42-15.61,114.02-26.93Z"/>
      <path class="cls-7" d="M1409.23,247.48s-1.5-79.08-85.35-109.04c-88.24-31.54-198.83,56-189.86,146.89,8.96,90.89,72.21,136.83,167.39,119.25,95.18-17.58,129.29-96.07,129.29-96.07l-6.44,101.03-21.52,46.01s-319.82,41.09-356.19-28.86c-36.37-69.95,29.96-314.4,63.95-335.29,34-20.89,267.06-42.44,296.89-14.13,29.83,28.31,55.65,146.72,44.99,156.09-10.66,9.37-43.15,14.11-43.15,14.11Z"/>
      <path class="cls-29" d="M1247.25,314.34s204.67-7.13,336.18-98.2l-.54-20.81-114.23,10.26-16.9,14.08-204.5,94.68Z"/>
    </g>
    <path class="cls-23" d="M1133.45,160.7s18.85-29.22,65.34-53.8l-73.52-15.97,8.17,69.77Z"/>
    <path class="cls-11" d="M1144.56,412.35s-30.2-25.69-51-81.92l-29.08,80.69,80.08,1.23Z"/>
    <path class="cls-24" d="M1388.47,106.15s32.86,19.81,61.52,70.25l15.14-81.61-76.66,11.36Z"/>
    <path class="cls-12" d="M1429.88,356.06s-16.35,33.24-62.52,64.97l79.75,7.85-17.24-72.81Z"/>
    <g class="cls-16">
      <path class="cls-6" d="M1465.13,94.8s-30.32,24.64-52.86,50.75l-38.24-44.19,9.61-24.5,63.09.99s31.71,2.31,18.41,16.94Z"/>
    </g>
    <path class="cls-22" d="M1289.96,450.26s-37.39,8.63-93.06-7.68l45.89,69.16,47.18-61.48Z"/>
    <g class="cls-28">
      <path class="cls-4" d="M1242.78,511.74s4.64-38.79,2.67-73.23l58.21,5.14,10.14,24.28-46.01,43.17s-24.39,20.39-25.01.63Z"/>
    </g>
    <path class="cls-30" d="M1340.26,88.43s-36.45-11.98-93.38-.79l51.97-64.72,41.41,65.51Z"/>
    <g class="cls-21">
      <path class="cls-5" d="M1298.67,24.47s-4.66,38.79-2.71,73.23l-58.21-5.17-10.13-24.29,46.03-43.15s24.4-20.38,25.01-.62Z"/>
    </g>
    <g class="cls-9">
      <path class="cls-8" d="M1125.27,90.93s21.22,27.92,38.74,42.41l-33.38,39.03-5.9-21.33-3.69-35.17,4.23-24.94Z"/>
    </g>
    <path class="cls-25" d="M1091.87,290.04s-4.75-38.48,17.47-92.73l-74.32,38.87,56.85,53.85Z"/>
    <g class="cls-20">
      <path class="cls-3" d="M1035.02,236.19s38.11,8.73,63.45,8.6l-.67,57.25-20.29-14.03-28.29-27.46-14.2-24.36Z"/>
    </g>
    <g class="cls-1">
      <path class="cls-27" d="M1038.46,428.74s49.18-34.84,83.97-51.68c34.79-16.85,56.85,68.24,56.85,68.24l-91.3,11.7-49.52-28.25Z"/>
    </g>
    <g class="cls-2">
      <path class="cls-18" d="M1456.73,436.86s-34.2-27.43-52.95-48.4c-18.74-20.97,36.36-53.42,36.36-53.42l26.44,61.53-9.86,40.29Z"/>
    </g>
  </g>
  <g>
    <path class="cls-32" d="M1583.55,195.27l21.89.12c1.68-8,3.36-16,5.09-23.98,4.06-18.84,7.93-37.75,12-56.62.77-3.75-1.55-6.8-5.23-6.8h-94.45c-3.68,0-7.36,3.06-8.13,6.8-5.7,26.68-11.38,53.34-17.05,80l85.87.48Z"/>
    <path class="cls-19" d="M1866.97,107.99h-94.45c-3.68,0-7.35,3.06-8.13,6.8-4.06,18.87-7.94,37.78-12,56.62-4.07,18.84-7.94,37.75-12,56.59h-139.75l-57.74,93.67-18.7,30.34-17.31-31.16-3.68-6.62c-10.75,2.84-21.6,5.43-32.5,7.81-4.32,20.4-8.64,40.8-12.95,61.21l8.69,36.69h84.46c3.87,0,7.55-3.03,8.32-6.77,4.07-18.84,7.94-37.75,12-56.59,4.06-18.84,7.93-37.75,12-56.62h141.86c-4.06,18.87-7.93,37.78-11.99,56.62-4.07,18.84-7.93,37.75-12,56.59-.77,3.74,1.36,6.77,5.23,6.77h94.25c3.87,0,7.55-3.03,8.32-6.77,10.45-49.73,21-99.47,31.55-149.17,10.55-49.75,21.09-99.45,31.74-149.21.77-3.75-1.55-6.8-5.22-6.8Z"/>
  </g>
</svg>