<?xml version="1.0" encoding="UTF-8"?>
<svg id="Layer_1" xmlns="http://www.w3.org/2000/svg" xmlns:xlink="http://www.w3.org/1999/xlink" viewBox="0 0 1920 534.67">
  <defs>
    <style>
      .cls-1 {
        clip-path: url(#clippath-6);
      }

      .cls-2 {
        clip-path: url(#clippath-7);
      }

      .cls-3 {
        fill: url(#linear-gradient-20);
      }

      .cls-3, .cls-4, .cls-5, .cls-6, .cls-7, .cls-8 {
        opacity: .3;
      }

      .cls-9 {
        clip-path: url(#clippath-4);
      }

      .cls-10 {
        fill: url(#linear-gradient-2);
      }

      .cls-11 {
        fill: url(#linear-gradient-10);
      }

      .cls-12 {
        fill: url(#linear-gradient-12);
      }

      .cls-4 {
        fill: url(#linear-gradient-15);
      }

      .cls-5 {
        fill: url(#linear-gradient-17);
      }

      .cls-6 {
        fill: url(#linear-gradient-13);
      }

      .cls-13 {
        fill: none;
      }

      .cls-14 {
        fill: url(#linear-gradient-4);
      }

      .cls-15 {
        fill: url(#linear-gradient-3);
      }

      .cls-16 {
        clip-path: url(#clippath-1);
      }

      .cls-17 {
        fill: url(#linear-gradient-5);
      }

      .cls-18 {
        fill: url(#linear-gradient-22);
      }

      .cls-19 {
        fill: url(#linear-gradient-24);
      }

      .cls-20 {
        clip-path: url(#clippath-5);
      }

      .cls-21 {
        clip-path: url(#clippath-3);
      }

      .cls-22 {
        fill: url(#linear-gradient-14);
      }

      .cls-23 {
        fill: url(#linear-gradient-9);
      }

      .cls-24 {
        fill: url(#linear-gradient-11);
      }

      .cls-25 {
        fill: url(#linear-gradient-19);
      }

      .cls-26 {
        fill: url(#linear-gradient-6);
      }

      .cls-7 {
        fill: url(#linear-gradient-7);
      }

      .cls-27 {
        fill: url(#linear-gradient-21);
      }

      .cls-28 {
        clip-path: url(#clippath-2);
      }

      .cls-29 {
        fill: url(#linear-gradient-8);
        opacity: .6;
      }

      .cls-8 {
        fill: url(#linear-gradient-18);
      }

      .cls-30 {
        fill: url(#linear-gradient-16);
      }

      .cls-31 {
        fill: url(#linear-gradient);
      }

      .cls-32 {
        fill: url(#linear-gradient-23);
      }

      .cls-33 {
        clip-path: url(#clippath);
      }
    </style>
    <linearGradient id="linear-gradient" x1="124.81" y1="263.98" x2="844.24" y2="263.98" gradientUnits="userSpaceOnUse">
      <stop offset="0" stop-color="#222"/>
      <stop offset="1" stop-color="#7e7e7e"/>
    </linearGradient>
    <linearGradient id="linear-gradient-2" x1="124.81" x2="844.24" xlink:href="#linear-gradient"/>
    <linearGradient id="linear-gradient-3" x1="124.81" x2="844.24" xlink:href="#linear-gradient"/>
    <linearGradient id="linear-gradient-4" x1="142.5" y1="263.98" x2="846.4" y2="263.98" xlink:href="#linear-gradient"/>
    <linearGradient id="linear-gradient-5" x1="1341.77" y1="942.31" x2="1590.55" y2="693.53" gradientTransform="translate(-222.68 -459.61) rotate(-1.5)" gradientUnits="userSpaceOnUse">
      <stop offset="0" stop-color="#929292"/>
      <stop offset=".45" stop-color="#a3a3a3"/>
      <stop offset="1" stop-color="#b4b4b4"/>
    </linearGradient>
    <clipPath id="clippath">
      <path class="cls-13" d="M1473.61,215.7l10.95,19.71c-29.25,18.84-98.12,53.58-235.18,78.77,0,0,40.87,6.63,105.57,2.89-6.75,11.55-15.67,22.25-26.7,31.45-46.69,38.92-113.19,36.11-148.52-6.28-15.64-18.76-22.54-42.14-21.34-65.74,46.15-2.22,102.33-12.23,168.86-36.2,0,0-82.61,20.12-165.64,15.18,5.75-22.45,18.8-43.9,38.67-60.47,40.14-33.46,94.91-36.05,131.94-9.18-30.75,11.79-67.66,21.79-112.03,28.6,0,0,57.58-.69,123.42-18.8,1.79,1.81,3.53,3.68,5.19,5.67,9.6,11.51,15.88,24.76,19.05,38.73,20.11-7.28,47.2-17.53,70.15-27.74-5.21-20.28-14.73-39.49-28.76-56.32-55.13-66.13-158.86-70.52-231.7-9.8-72.84,60.72-87.2,163.55-32.07,229.68,55.13,66.13,158.86,70.52,231.7,9.8,25.92-21.61,44.42-48.56,55.04-77.28,25.82-4.31,53.51-10.35,82.5-18.71l11.61,20.9,58.1-94.25-110.81-.61Z"/>
    </clipPath>
    <linearGradient id="linear-gradient-6" x1="1810.93" y1="751.92" x2="1489.66" y2="814.52" gradientTransform="translate(-222.68 -459.61) rotate(-1.5)" gradientUnits="userSpaceOnUse">
      <stop offset="0" stop-color="#222"/>
      <stop offset=".12" stop-color="#434343"/>
      <stop offset=".29" stop-color="#6d6d6d"/>
      <stop offset=".38" stop-color="#7e7e7e"/>
      <stop offset=".58" stop-color="#929292"/>
      <stop offset=".96" stop-color="#b4b4b4"/>
    </linearGradient>
    <linearGradient id="linear-gradient-7" x1="1379.18" y1="629.34" x2="1504.99" y2="900.81" gradientTransform="translate(-222.68 -459.61) rotate(-1.5)" gradientUnits="userSpaceOnUse">
      <stop offset="0" stop-color="#fff"/>
      <stop offset=".12" stop-color="#fff" stop-opacity=".82"/>
      <stop offset=".3" stop-color="#fff" stop-opacity=".58"/>
      <stop offset=".48" stop-color="#fff" stop-opacity=".37"/>
      <stop offset=".64" stop-color="#fff" stop-opacity=".21"/>
      <stop offset=".78" stop-color="#fff" stop-opacity=".09"/>
      <stop offset=".91" stop-color="#fff" stop-opacity=".02"/>
      <stop offset="1" stop-color="#fff" stop-opacity="0"/>
    </linearGradient>
    <linearGradient id="linear-gradient-8" x1="1612.58" y1="732.68" x2="1632.29" y2="796.97" xlink:href="#linear-gradient-7"/>
    <linearGradient id="linear-gradient-9" x1="508.23" y1="121.65" x2="680.65" y2="-50.76" gradientTransform="translate(632.01 135.72) rotate(-15.46)" xlink:href="#linear-gradient-5"/>
    <linearGradient id="linear-gradient-10" x1="-1365.17" y1="-4698.83" x2="-1168.59" y2="-4895.41" gradientTransform="translate(5567.05 -1613.56) rotate(-97.9)" xlink:href="#linear-gradient-5"/>
    <linearGradient id="linear-gradient-11" x1="6111.7" y1="-875.38" x2="6301.92" y2="-1065.61" gradientTransform="translate(-1205.44 -5453.73) rotate(72.79)" xlink:href="#linear-gradient-5"/>
    <linearGradient id="linear-gradient-12" x1="5054.89" y1="-6380.25" x2="5238.56" y2="-6563.92" gradientTransform="translate(3700.67 -7409.05) rotate(157.9)" xlink:href="#linear-gradient-5"/>
    <clipPath id="clippath-1">
      <path class="cls-13" d="M1390.12,106.7s32.75,19.74,61.31,70.01l15.09-81.33-76.4,11.32Z"/>
    </clipPath>
    <linearGradient id="linear-gradient-13" x1="1167.44" y1="603.3" x2="1198.9" y2="644.77" gradientTransform="translate(180.44 -395.74) rotate(-6.18)" gradientUnits="userSpaceOnUse">
      <stop offset="0" stop-color="#fff" stop-opacity="0"/>
      <stop offset=".09" stop-color="#fff" stop-opacity=".02"/>
      <stop offset=".22" stop-color="#fff" stop-opacity=".09"/>
      <stop offset=".36" stop-color="#fff" stop-opacity=".21"/>
      <stop offset=".52" stop-color="#fff" stop-opacity=".37"/>
      <stop offset=".7" stop-color="#fff" stop-opacity=".58"/>
      <stop offset=".88" stop-color="#fff" stop-opacity=".82"/>
      <stop offset="1" stop-color="#fff"/>
    </linearGradient>
    <linearGradient id="linear-gradient-14" x1="4935.25" y1="-4743.31" x2="4911.29" y2="-4811.85" gradientTransform="translate(7854.71 -1353.42) rotate(-151.28)" xlink:href="#linear-gradient-5"/>
    <clipPath id="clippath-2">
      <path class="cls-13" d="M1291.95,449.63s-37.26,8.6-92.75-7.65l45.73,68.93,47.02-61.27Z"/>
    </clipPath>
    <linearGradient id="linear-gradient-15" x1="4767.91" y1="-1311.24" x2="4799.36" y2="-1269.77" gradientTransform="translate(3340.75 -4023.27) rotate(129.75)" xlink:href="#linear-gradient-13"/>
    <linearGradient id="linear-gradient-16" x1="6438.76" y1="-1344.86" x2="6403.9" y2="-1408.69" gradientTransform="translate(7734.86 -1233.49) rotate(156.48) scale(1 -1)" xlink:href="#linear-gradient-5"/>
    <clipPath id="clippath-3">
      <path class="cls-13" d="M1342.07,89.04s-36.33-11.94-93.06-.78l51.79-64.5,41.27,65.28Z"/>
    </clipPath>
    <linearGradient id="linear-gradient-17" x1="291.01" y1="-1077.41" x2="322.47" y2="-1035.94" gradientTransform="translate(1887.21 968.17) rotate(-50.22)" xlink:href="#linear-gradient-13"/>
    <clipPath id="clippath-4">
      <path class="cls-13" d="M1135.97,161.06s18.79-29.12,65.12-53.61l-73.27-15.91,8.15,69.53Z"/>
    </clipPath>
    <linearGradient id="linear-gradient-18" x1="464.38" y1="138.27" x2="504.27" y2="117.58" gradientTransform="translate(632.01 135.72) rotate(-15.46)" xlink:href="#linear-gradient-13"/>
    <linearGradient id="linear-gradient-19" x1="-93.4" y1="-1227.44" x2="-109.88" y2="-1285.06" gradientTransform="translate(2176.22 868.63) rotate(-55.33)" xlink:href="#linear-gradient-5"/>
    <clipPath id="clippath-5">
      <path class="cls-13" d="M1094.54,289.96s-4.74-38.35,17.41-92.41l-74.06,38.74,56.66,53.67Z"/>
    </clipPath>
    <linearGradient id="linear-gradient-20" x1="-155.61" y1="-1241.7" x2="-111.14" y2="-1264.76" gradientTransform="translate(2176.22 868.63) rotate(-55.33)" xlink:href="#linear-gradient-13"/>
    <clipPath id="clippath-6">
      <path class="cls-13" d="M1147.05,411.85s-30.1-25.6-50.82-81.64l-28.98,80.42,79.8,1.22Z"/>
    </clipPath>
    <linearGradient id="linear-gradient-21" x1="-885.03" y1="-3873.65" x2="-920.15" y2="-3951.96" gradientTransform="translate(2562.6 4133.19) rotate(-8.5)" gradientUnits="userSpaceOnUse">
      <stop offset="0" stop-color="#fff" stop-opacity="0"/>
      <stop offset=".09" stop-color="#fff" stop-opacity=".06"/>
      <stop offset=".27" stop-color="#fff" stop-opacity=".2"/>
      <stop offset=".51" stop-color="#fff" stop-opacity=".44"/>
      <stop offset=".8" stop-color="#fff" stop-opacity=".76"/>
      <stop offset="1" stop-color="#fff"/>
    </linearGradient>
    <clipPath id="clippath-7">
      <path class="cls-13" d="M1431.39,355.76s-16.3,33.13-62.31,64.74l79.48,7.82-17.18-72.57Z"/>
    </clipPath>
    <linearGradient id="linear-gradient-22" x1="-160.85" y1="-7893.18" x2="-181.17" y2="-7938.49" gradientTransform="translate(8567.52 -3032.96) rotate(-114.46)" xlink:href="#linear-gradient-13"/>
    <linearGradient id="linear-gradient-23" x1="1645.3" y1="152.08" x2="1503.98" y2="152.08" gradientTransform="matrix(1,0,0,1,0,0)" xlink:href="#linear-gradient-5"/>
    <linearGradient id="linear-gradient-24" x1="1944.56" y1="263.98" x2="1475.87" y2="263.98" gradientTransform="matrix(1,0,0,1,0,0)" xlink:href="#linear-gradient-5"/>
  </defs>
  <path class="cls-31" d="M120.09,108.53h275.59c22.4,0,40.38,9.17,51.87,23.72,11.58,14.67,16.39,34.81,11.66,57.02-5.32,24.92-10.51,49.83-15.77,74.74-5.25,24.9-10.45,49.81-15.77,74.7-4.74,22.21-18.24,42.46-35.88,57.02-17.78,14.67-39.99,23.69-62.16,23.69H54.05c-3.89,0-6.29-2.99-5.49-6.74,10.62-49.54,20.92-99.14,31.54-148.67,10.63-49.58,21.14-99.14,31.77-148.7.8-3.76,4.57-6.78,8.22-6.78ZM323.69,320.78c4.12-18.9,8-37.87,12.11-56.77,4.11-18.9,8-37.87,12.11-56.8,3.2-14.8-6.4-26.92-21.02-26.92h-121.11c-5.94,27.92-12.11,55.84-18.06,83.73-5.94,27.88-11.88,55.8-17.82,83.69h121.11c14.63,0,29.48-12.12,32.67-26.92Z"/>
  <path class="cls-10" d="M499.71,108.53h94.12c3.66,0,6,3.05,5.21,6.78-10.59,49.59-21.12,99.12-31.63,148.7-10.51,49.54-21.03,99.11-31.44,148.67-.78,3.73-4.44,6.74-8.3,6.74h-93.93c-3.86,0-6.17-3.02-5.4-6.74,10.42-49.56,20.93-99.13,31.44-148.67,10.52-49.58,21.05-99.11,31.63-148.7.8-3.73,4.63-6.78,8.3-6.78Z"/>
  <path class="cls-15" d="M642.53,132.25c17.56-14.61,39.93-23.72,62.11-23.72h268.87c3.86,0,6.17,3.05,5.4,6.78-4.05,19.4-8.3,38.8-12.34,58.2-.77,3.73-4.43,6.78-8.1,6.78h-215.06c-15.04,0-29.71,12.13-32.79,26.92-4.05,18.94-8.19,37.88-12.15,56.8-3.95,18.88-7.91,37.86-11.96,56.77-3.08,14.8,6.17,26.92,21.22,26.92h114.38c3.47-15.95,6.75-31.89,10.22-47.85h-86.8c-3.86,0-6.17-3.05-5.4-6.78,4.24-19.37,8.29-38.77,12.34-58.17.96-3.73,4.44-6.78,8.3-6.78h187.47c3.67,0,6.17,3.05,5.21,6.78-6.18,29.63-12.45,59.28-18.71,88.88-6.27,29.65-12.54,59.26-18.9,88.88-.78,3.73-4.63,6.74-8.3,6.74h-268.87c-22.18,0-40.64-9.12-51.89-23.69-11.32-14.66-16.2-34.82-11.57-57.02,5.4-24.9,10.52-49.82,15.81-74.7,5.31-24.93,10.61-49.81,16.01-74.74,4.63-22.2,17.94-42.41,35.49-57.02Z"/>
  <path class="cls-14" d="M1047.67,403.58l15.24-42.29c4.26-20.17,8.52-40.33,12.8-60.5l-52.14-49.39-21.15-20.03,25.81-13.5,73.24-38.31c3.38-15.87,6.74-31.74,10.13-47.61l-2.74-23.4h-93.05c-3.67,0-7.5,3.05-8.3,6.78-10.59,49.59-21.12,99.12-31.63,148.7-10.5,49.53-21.02,99.11-31.44,148.67-.77,3.73,1.54,6.74,5.4,6.74h92.12l5.71-15.84Z"/>
  <g>
    <path class="cls-17" d="M1473.61,215.7l10.95,19.71c-29.25,18.84-98.12,53.58-235.18,78.77,0,0,40.87,6.63,105.57,2.89-6.75,11.55-15.67,22.25-26.7,31.45-46.69,38.92-113.19,36.11-148.52-6.28-15.64-18.76-22.54-42.14-21.34-65.74,46.15-2.22,102.33-12.23,168.86-36.2,0,0-82.61,20.12-165.64,15.18,5.75-22.45,18.8-43.9,38.67-60.47,40.14-33.46,94.91-36.05,131.94-9.18-30.75,11.79-67.66,21.79-112.03,28.6,0,0,57.58-.69,123.42-18.8,1.79,1.81,3.53,3.68,5.19,5.67,9.6,11.51,15.88,24.76,19.05,38.73,20.11-7.28,47.2-17.53,70.15-27.74-5.21-20.28-14.73-39.49-28.76-56.32-55.13-66.13-158.86-70.52-231.7-9.8-72.84,60.72-87.2,163.55-32.07,229.68,55.13,66.13,158.86,70.52,231.7,9.8,25.92-21.61,44.42-48.56,55.04-77.28,25.82-4.31,53.51-10.35,82.5-18.71l11.61,20.9,58.1-94.25-110.81-.61Z"/>
    <g class="cls-33">
      <path class="cls-26" d="M1354.95,317.07s50.58-3.73,77.26-8.7c26.68-4.96,39.21,26.57,39.21,26.57l85.15,8.19,82.45-68.74-10.57-66.31-94.66-34.22s-33.75,8.36-51.23,15.61c-17.48,7.25-33.69,36.89-33.69,36.89l-11.81,15.94-85.5,30.09s-72.14,21.59-87.63,26.75c-15.49,5.16-39.1,11.89-39.1,11.89l16.49,32.86s95.1-15.56,113.64-26.83Z"/>
      <path class="cls-7" d="M1410.81,247.55s-1.49-78.81-85.06-108.67c-87.94-31.43-198.15,55.81-189.22,146.39,8.93,90.58,71.97,136.37,166.82,118.85,94.86-17.52,128.85-95.74,128.85-95.74l-6.42,100.69-21.45,45.86s-318.73,40.95-354.98-28.77c-36.25-69.72,29.86-313.33,63.74-334.15,33.88-20.82,266.15-42.29,295.88-14.08,29.73,28.21,55.46,146.22,44.84,155.56-10.63,9.34-43,14.06-43,14.06Z"/>
      <path class="cls-29" d="M1249.38,314.18s203.97-7.1,335.04-97.87l-.54-20.74-113.84,10.22-16.85,14.03-203.8,94.35Z"/>
    </g>
    <path class="cls-23" d="M1135.97,161.06s18.79-29.12,65.12-53.61l-73.27-15.91,8.15,69.53Z"/>
    <path class="cls-11" d="M1147.05,411.85s-30.1-25.6-50.82-81.64l-28.98,80.42,79.8,1.22Z"/>
    <path class="cls-24" d="M1390.12,106.7s32.75,19.74,61.31,70.01l15.09-81.33-76.4,11.32Z"/>
    <path class="cls-12" d="M1431.39,355.76s-16.3,33.13-62.31,64.74l79.48,7.82-17.18-72.57Z"/>
    <g class="cls-16">
      <path class="cls-6" d="M1466.52,95.38s-30.22,24.56-52.67,50.58l-38.11-44.04,9.57-24.41,62.87.99s31.6,2.31,18.34,16.88Z"/>
    </g>
    <path class="cls-22" d="M1291.95,449.63s-37.26,8.6-92.75-7.65l45.73,68.93,47.02-61.27Z"/>
    <g class="cls-28">
      <path class="cls-4" d="M1244.93,510.91s4.63-38.66,2.66-72.98l58.01,5.13,10.1,24.2-45.85,43.02s-24.31,20.32-24.92.63Z"/>
    </g>
    <path class="cls-30" d="M1342.07,89.04s-36.33-11.94-93.06-.78l51.79-64.5,41.27,65.28Z"/>
    <g class="cls-21">
      <path class="cls-5" d="M1300.63,25.3s-4.65,38.66-2.7,72.98l-58.01-5.15-10.09-24.2,45.88-43s24.32-20.31,24.92-.62Z"/>
    </g>
    <g class="cls-9">
      <path class="cls-8" d="M1127.82,91.53s21.15,27.83,38.61,42.26l-33.27,38.9-5.88-21.26-3.67-35.05,4.21-24.85Z"/>
    </g>
    <path class="cls-25" d="M1094.54,289.96s-4.74-38.35,17.41-92.41l-74.06,38.74,56.66,53.67Z"/>
    <g class="cls-20">
      <path class="cls-3" d="M1037.88,236.29s37.98,8.7,63.24,8.57l-.67,57.06-20.22-13.99-28.19-27.37-14.15-24.27Z"/>
    </g>
    <g class="cls-1">
      <path class="cls-27" d="M1041.3,428.19s49.01-34.72,83.68-51.51c34.68-16.79,56.66,68,56.66,68l-90.99,11.66-49.35-28.15Z"/>
    </g>
    <g class="cls-2">
      <path class="cls-18" d="M1458.14,436.28s-34.09-27.34-52.77-48.23c-18.68-20.9,36.24-53.23,36.24-53.23l26.35,61.32-9.82,40.15Z"/>
    </g>
  </g>
  <g>
    <path class="cls-32" d="M1584.53,195.51l21.82.12c1.68-7.97,3.35-15.94,5.07-23.9,4.05-18.78,7.91-37.62,11.96-56.43.77-3.73-1.54-6.78-5.21-6.78h-94.13c-3.66,0-7.33,3.05-8.1,6.78-5.69,26.59-11.34,53.16-16.99,79.73l85.58.47Z"/>
    <path class="cls-19" d="M1866.98,108.53h-94.13c-3.66,0-7.33,3.05-8.1,6.78-4.05,18.81-7.91,37.65-11.96,56.43-4.05,18.78-7.91,37.62-11.96,56.4h-139.27l-57.54,93.35-18.64,30.24-17.25-31.05-3.67-6.6c-10.71,2.84-21.53,5.41-32.39,7.78-4.31,20.33-8.61,40.66-12.9,61l8.66,36.57h84.18c3.86,0,7.52-3.02,8.3-6.74,4.05-18.78,7.91-37.62,11.96-56.39,4.05-18.78,7.9-37.62,11.96-56.43h141.38c-4.05,18.81-7.9,37.65-11.95,56.43-4.05,18.78-7.91,37.62-11.96,56.39-.77,3.73,1.35,6.74,5.21,6.74h93.93c3.86,0,7.52-3.02,8.29-6.74,10.42-49.56,20.93-99.13,31.44-148.67,10.52-49.58,21.02-99.11,31.63-148.7.77-3.73-1.54-6.78-5.2-6.78Z"/>
  </g>
</svg>