<?xml version="1.0" encoding="UTF-8"?>
<svg id="Layer_1" xmlns="http://www.w3.org/2000/svg" viewBox="0 0 1920 534.67">
  <defs>
    <style>
      .cls-1 {
        fill: #11224e;
      }
    </style>
  </defs>
  <path class="cls-1" d="M119.37,108.46h275.7c22.41,0,40.4,9.17,51.9,23.73,11.59,14.67,16.4,34.82,11.66,57.04-5.32,24.93-10.52,49.86-15.78,74.77-5.26,24.91-10.46,49.83-15.77,74.73-4.74,22.22-18.24,42.48-35.89,57.04-17.79,14.68-40.01,23.7-62.18,23.7H53.31c-3.89,0-6.29-2.99-5.49-6.75,10.63-49.56,20.93-99.18,31.55-148.73,10.64-49.6,21.15-99.18,31.78-148.76.8-3.76,4.57-6.78,8.23-6.78ZM323.06,320.8c4.12-18.91,8-37.88,12.12-56.79,4.12-18.91,8-37.88,12.12-56.83,3.2-14.8-6.4-26.94-21.03-26.94h-121.16c-5.94,27.93-12.12,55.86-18.06,83.76-5.94,27.9-11.88,55.83-17.83,83.72h121.16c14.63,0,29.49-12.13,32.69-26.93Z"/>
  <path class="cls-1" d="M499.16,108.46h94.16c3.67,0,6.01,3.05,5.21,6.78-10.59,49.61-21.13,99.16-31.65,148.76-10.51,49.56-21.04,99.15-31.45,148.73-.78,3.73-4.44,6.75-8.3,6.75h-93.97c-3.86,0-6.17-3.02-5.4-6.75,10.42-49.58,20.94-99.17,31.45-148.73,10.52-49.6,21.06-99.15,31.65-148.76.8-3.73,4.63-6.78,8.3-6.78Z"/>
  <path class="cls-1" d="M642.03,132.2c17.56-14.62,39.95-23.73,62.14-23.73h268.98c3.86,0,6.17,3.05,5.4,6.78-4.05,19.41-8.3,38.82-12.35,58.22-.77,3.73-4.43,6.78-8.1,6.78h-215.15c-15.05,0-29.72,12.13-32.8,26.94-4.05,18.94-8.2,37.89-12.16,56.83-3.95,18.89-7.91,37.88-11.97,56.79-3.09,14.8,6.17,26.93,21.23,26.93h114.42c3.47-15.95,6.75-31.91,10.23-47.86h-86.83c-3.86,0-6.17-3.05-5.4-6.78,4.25-19.38,8.3-38.79,12.35-58.19.96-3.73,4.44-6.78,8.3-6.78h187.55c3.67,0,6.17,3.05,5.21,6.78-6.18,29.64-12.45,59.3-18.72,88.92-6.27,29.66-12.54,59.28-18.91,88.92-.78,3.73-4.63,6.75-8.3,6.75h-268.98c-22.19,0-40.66-9.13-51.91-23.7-11.32-14.66-16.21-34.84-11.57-57.04,5.4-24.91,10.52-49.84,15.82-74.73,5.31-24.94,10.62-49.83,16.02-74.77,4.63-22.21,17.94-42.42,35.5-57.04Z"/>
  <path class="cls-1" d="M1047.34,403.63l15.25-42.31c4.26-20.18,8.53-40.35,12.81-60.52l-52.16-49.41-21.15-20.04,25.82-13.51,73.27-38.33c3.38-15.88,6.75-31.75,10.13-47.63l-2.74-23.41h-93.09c-3.67,0-7.5,3.05-8.3,6.78-10.59,49.61-21.13,99.16-31.65,148.76-10.51,49.55-21.03,99.15-31.45,148.73-.77,3.73,1.54,6.75,5.4,6.75h92.15l5.71-15.85Z"/>
  <path class="cls-1" d="M1328.02,348.56c-46.71,38.94-113.23,36.12-148.58-6.29-15.65-18.77-22.55-42.15-21.35-65.76,46.17-2.22,102.37-12.24,168.93-36.21,0,0-82.64,20.12-165.71,15.18,5.75-22.46,18.81-43.92,38.69-60.49,40.16-33.48,94.95-36.06,132-9.18-30.76,11.79-67.68,21.8-112.07,28.61,0,0,57.61-.69,123.47-18.81,1.79,1.81,3.53,3.68,5.19,5.67,9.6,11.52,15.89,24.78,19.06,38.75,20.12-7.29,47.22-17.54,70.18-27.75-5.21-20.29-14.74-39.51-28.77-56.35-55.15-66.16-158.93-70.55-231.8-9.81s-87.23,163.62-32.08,229.78c55.15,66.16,158.93,70.55,231.8,9.81,25.93-21.62,44.44-48.58,55.06-77.31-26.69,4.96-77.29,8.7-77.29,8.7-6.75,11.55-15.68,22.26-26.71,31.46Z"/>
  <path class="cls-1" d="M1135.67,161.02s18.8-29.14,65.15-53.64l-73.3-15.92,8.15,69.56Z"/>
  <path class="cls-1" d="M1146.75,411.91s-30.11-25.61-50.84-81.68l-28.99,80.45,79.83,1.23Z"/>
  <path class="cls-1" d="M1389.93,106.64s32.76,19.75,61.34,70.04l15.1-81.36-76.43,11.32Z"/>
  <path class="cls-1" d="M1431.21,355.79s-16.3,33.14-62.33,64.77l79.51,7.82-17.18-72.6Z"/>
  <path class="cls-1" d="M1291.71,449.71s-37.27,8.6-92.78-7.66l45.75,68.95,47.03-61.3Z"/>
  <path class="cls-1" d="M1341.86,88.97s-36.34-11.94-93.1-.79l51.81-64.52,41.29,65.31Z"/>
  <path class="cls-1" d="M1094.22,289.97s-4.74-38.36,17.41-92.45l-74.09,38.76,56.68,53.69Z"/>
  <g>
    <path class="cls-1" d="M1584.42,195.48l21.83.12c1.68-7.97,3.35-15.95,5.07-23.91,4.05-18.79,7.91-37.63,11.97-56.45.77-3.73-1.54-6.78-5.21-6.78h-94.17c-3.67,0-7.34,3.05-8.11,6.78-5.69,26.6-11.35,53.18-16.99,79.76l85.62.47Z"/>
    <path class="cls-1" d="M1866.98,108.46h-94.17c-3.67,0-7.33,3.05-8.1,6.78-4.05,18.82-7.91,37.66-11.96,56.45-4.05,18.79-7.91,37.63-11.97,56.42h-139.33l-57.57,93.39-18.65,30.25-17.26-31.06-3.67-6.6c-10.72,2.84-21.54,5.42-32.4,7.78-4.31,20.34-8.62,40.68-12.91,61.02l8.66,36.58h84.21c3.86,0,7.53-3.02,8.3-6.75,4.05-18.79,7.91-37.63,11.97-56.42,4.05-18.79,7.91-37.64,11.96-56.45h141.43c-4.05,18.82-7.91,37.67-11.96,56.45-4.05,18.79-7.91,37.63-11.97,56.42-.77,3.73,1.35,6.75,5.21,6.75h93.97c3.86,0,7.52-3.02,8.3-6.75,10.42-49.58,20.94-99.17,31.45-148.73,10.52-49.6,21.03-99.15,31.64-148.76.77-3.73-1.54-6.78-5.21-6.78Z"/>
  </g>
  <path class="cls-1" d="M1526.18,310.59l58.12-94.29-110.85-.61,10.96,19.72c-29.26,18.84-98.16,53.6-235.28,78.8,0,0,40.89,6.64,105.61,2.89,0,0,50.6-3.74,77.29-8.7,25.83-4.31,53.53-10.35,82.53-18.72l11.62,20.91Z"/>
</svg>