<?xml version="1.0" encoding="UTF-8"?>
<svg id="Layer_1" xmlns="http://www.w3.org/2000/svg" xmlns:xlink="http://www.w3.org/1999/xlink" viewBox="0 0 1027.3 754.12">
  <defs>
    <style>
      .cls-1 {
        fill: url(#linear-gradient-15);
      }

      .cls-2 {
        fill: url(#linear-gradient-13);
      }

      .cls-3 {
        clip-path: url(#clippath-6);
      }

      .cls-4 {
        clip-path: url(#clippath-7);
      }

      .cls-5 {
        clip-path: url(#clippath-4);
      }

      .cls-6 {
        fill: url(#linear-gradient-2);
      }

      .cls-7 {
        fill: url(#linear-gradient-10);
      }

      .cls-8 {
        fill: url(#linear-gradient-17);
      }

      .cls-8, .cls-9, .cls-10, .cls-11, .cls-12, .cls-13 {
        opacity: .3;
      }

      .cls-9 {
        fill: url(#linear-gradient-19);
      }

      .cls-14 {
        fill: none;
      }

      .cls-15 {
        fill: url(#linear-gradient-4);
      }

      .cls-10 {
        fill: url(#linear-gradient-14);
      }

      .cls-11 {
        fill: url(#linear-gradient-12);
      }

      .cls-16 {
        fill: url(#linear-gradient-3);
      }

      .cls-17 {
        clip-path: url(#clippath-1);
      }

      .cls-18 {
        fill: url(#linear-gradient-5);
      }

      .cls-19 {
        fill: url(#linear-gradient-22);
      }

      .cls-20 {
        clip-path: url(#clippath-5);
      }

      .cls-12 {
        fill: url(#linear-gradient-6);
      }

      .cls-21 {
        fill: url(#linear-gradient-8);
      }

      .cls-22 {
        clip-path: url(#clippath-3);
      }

      .cls-23 {
        fill: url(#linear-gradient-20);
      }

      .cls-24 {
        fill: url(#linear-gradient-9);
      }

      .cls-25 {
        fill: url(#linear-gradient-11);
      }

      .cls-26 {
        fill: url(#linear-gradient-7);
        opacity: .6;
      }

      .cls-27 {
        fill: url(#linear-gradient-21);
      }

      .cls-13 {
        fill: url(#linear-gradient-16);
      }

      .cls-28 {
        clip-path: url(#clippath-2);
      }

      .cls-29 {
        fill: url(#linear-gradient);
      }

      .cls-30 {
        fill: url(#linear-gradient-23);
      }

      .cls-31 {
        clip-path: url(#clippath);
      }

      .cls-32 {
        fill: url(#linear-gradient-18);
      }
    </style>
    <linearGradient id="linear-gradient" x1="166.75" y1="154.89" x2="777.86" y2="154.89" gradientUnits="userSpaceOnUse">
      <stop offset="0" stop-color="#11224e"/>
      <stop offset="1" stop-color="#5c83c4"/>
    </linearGradient>
    <linearGradient id="linear-gradient-2" x1="166.75" x2="777.86" xlink:href="#linear-gradient"/>
    <linearGradient id="linear-gradient-3" x1="166.75" x2="777.86" xlink:href="#linear-gradient"/>
    <linearGradient id="linear-gradient-4" x1="623.06" y1="923.66" x2="876.45" y2="670.27" gradientTransform="translate(-520.47 -240.58) rotate(-1.5)" gradientUnits="userSpaceOnUse">
      <stop offset="0" stop-color="#f17720"/>
      <stop offset=".58" stop-color="#f9942a"/>
      <stop offset="1" stop-color="#ffa630"/>
    </linearGradient>
    <clipPath id="clippath">
      <path class="cls-14" d="M463,430.59l11.16,20.08c-29.8,19.19-99.94,54.57-239.54,80.23,0,0,41.63,6.76,107.52,2.94-6.87,11.76-15.96,22.67-27.2,32.03-47.56,39.64-115.28,36.78-151.28-6.4-15.93-19.11-22.96-42.92-21.73-66.96,47.01-2.26,104.22-12.46,171.99-36.87,0,0-84.14,20.49-168.71,15.46,5.85-22.86,19.15-44.72,39.39-61.59,40.89-34.08,96.67-36.71,134.39-9.35-31.32,12.01-68.91,22.19-114.11,29.13,0,0,58.65-.71,125.71-19.15,1.82,1.85,3.6,3.75,5.28,5.77,9.77,11.73,16.18,25.22,19.4,39.45,20.49-7.42,48.07-17.86,71.45-28.25-5.31-20.66-15-40.23-29.29-57.37-56.15-67.36-161.81-71.83-236-9.99-74.19,61.84-88.81,166.58-32.66,233.94,56.15,67.36,161.81,71.83,236,9.99,26.4-22.01,45.25-49.46,56.06-78.71,26.3-4.39,54.5-10.54,84.03-19.06l11.83,21.29,59.18-96-112.86-.63Z"/>
    </clipPath>
    <linearGradient id="linear-gradient-5" x1="1100.92" y1="729.75" x2="773.7" y2="793.51" gradientTransform="translate(-520.47 -240.58) rotate(-1.5)" gradientUnits="userSpaceOnUse">
      <stop offset="0" stop-color="#11224e"/>
      <stop offset=".17" stop-color="#365389"/>
      <stop offset=".31" stop-color="#5175b3"/>
      <stop offset=".38" stop-color="#5c83c4"/>
      <stop offset=".52" stop-color="#878c9c"/>
      <stop offset=".83" stop-color="#dc9e4e"/>
      <stop offset=".96" stop-color="#ffa630"/>
    </linearGradient>
    <linearGradient id="linear-gradient-6" x1="661.17" y1="604.89" x2="789.31" y2="881.4" gradientTransform="translate(-520.47 -240.58) rotate(-1.5)" gradientUnits="userSpaceOnUse">
      <stop offset="0" stop-color="#fff"/>
      <stop offset=".12" stop-color="#fff" stop-opacity=".82"/>
      <stop offset=".3" stop-color="#fff" stop-opacity=".58"/>
      <stop offset=".48" stop-color="#fff" stop-opacity=".37"/>
      <stop offset=".64" stop-color="#fff" stop-opacity=".21"/>
      <stop offset=".78" stop-color="#fff" stop-opacity=".09"/>
      <stop offset=".91" stop-color="#fff" stop-opacity=".02"/>
      <stop offset="1" stop-color="#fff" stop-opacity="0"/>
    </linearGradient>
    <linearGradient id="linear-gradient-7" x1="898.9" y1="710.15" x2="918.97" y2="775.63" xlink:href="#linear-gradient-6"/>
    <linearGradient id="linear-gradient-8" x1="2835.4" y1="-1721.58" x2="3011.01" y2="-1897.2" gradientTransform="translate(-2135.96 2745.8) rotate(-15.46)" xlink:href="#linear-gradient-4"/>
    <linearGradient id="linear-gradient-9" x1="19306.44" y1="-807.41" x2="19506.66" y2="-1007.63" gradientTransform="translate(3536.89 19614.77) rotate(-97.9)" xlink:href="#linear-gradient-4"/>
    <linearGradient id="linear-gradient-10" x1="826.39" y1="16109.57" x2="1020.14" y2="15915.82" gradientTransform="translate(15571.57 -5216.58) rotate(72.79)" xlink:href="#linear-gradient-4"/>
    <linearGradient id="linear-gradient-11" x1="17599.68" y1="19044.75" x2="17786.75" y2="18857.67" gradientTransform="translate(23877.15 11647.2) rotate(157.9)" xlink:href="#linear-gradient-4"/>
    <clipPath id="clippath-1">
      <path class="cls-14" d="M377.96,319.57s33.36,20.11,62.45,71.31l15.37-82.84-77.82,11.53Z"/>
    </clipPath>
    <linearGradient id="linear-gradient-12" x1="1423.51" y1="-112.97" x2="1455.55" y2="-70.73" gradientTransform="translate(-1008.94 556.27) rotate(-6.18)" gradientUnits="userSpaceOnUse">
      <stop offset="0" stop-color="#fff" stop-opacity="0"/>
      <stop offset=".09" stop-color="#fff" stop-opacity=".02"/>
      <stop offset=".22" stop-color="#fff" stop-opacity=".09"/>
      <stop offset=".36" stop-color="#fff" stop-opacity=".21"/>
      <stop offset=".52" stop-color="#fff" stop-opacity=".37"/>
      <stop offset=".7" stop-color="#fff" stop-opacity=".58"/>
      <stop offset=".88" stop-color="#fff" stop-opacity=".82"/>
      <stop offset="1" stop-color="#fff"/>
    </linearGradient>
    <linearGradient id="linear-gradient-13" x1="26688.11" y1="12205.53" x2="26663.71" y2="12135.72" gradientTransform="translate(17773.16 24181.82) rotate(-151.28)" xlink:href="#linear-gradient-4"/>
    <clipPath id="clippath-2">
      <path class="cls-14" d="M277.96,668.86s-37.95,8.76-94.47-7.79l46.58,70.2,47.89-62.41Z"/>
    </clipPath>
    <linearGradient id="linear-gradient-14" x1="10233.47" y1="24503.81" x2="10265.52" y2="24546.05" gradientTransform="translate(25669.71 8501.15) rotate(129.75)" xlink:href="#linear-gradient-12"/>
    <linearGradient id="linear-gradient-15" x1="18637.09" y1="-3882.39" x2="18601.59" y2="-3947.4" gradientTransform="translate(18918.56 -3561.54) rotate(156.48) scale(1 -1)" xlink:href="#linear-gradient-4"/>
    <clipPath id="clippath-3">
      <path class="cls-14" d="M329.02,301.58s-37-12.16-94.78-.8l52.75-65.69,42.03,66.49Z"/>
    </clipPath>
    <linearGradient id="linear-gradient-16" x1="11279.24" y1="-3903.45" x2="11311.28" y2="-3861.21" gradientTransform="translate(-3985.94 11433.11) rotate(-50.22)" xlink:href="#linear-gradient-12"/>
    <clipPath id="clippath-4">
      <path class="cls-14" d="M119.09,374.94s19.14-29.67,66.33-54.61l-74.62-16.21,8.3,70.82Z"/>
    </clipPath>
    <linearGradient id="linear-gradient-17" x1="2790.73" y1="-1704.66" x2="2831.36" y2="-1725.74" gradientTransform="translate(-2135.96 2745.8) rotate(-15.46)" xlink:href="#linear-gradient-12"/>
    <linearGradient id="linear-gradient-18" x1="12155.01" y1="-3750.76" x2="12138.23" y2="-3809.44" gradientTransform="translate(-3732.92 12593.26) rotate(-55.33)" xlink:href="#linear-gradient-4"/>
    <clipPath id="clippath-5">
      <path class="cls-14" d="M76.89,506.23s-4.83-39.06,17.73-94.13l-75.44,39.46,57.71,54.67Z"/>
    </clipPath>
    <linearGradient id="linear-gradient-19" x1="12091.66" y1="-3765.28" x2="12136.95" y2="-3788.77" gradientTransform="translate(-3732.92 12593.26) rotate(-55.33)" xlink:href="#linear-gradient-12"/>
    <clipPath id="clippath-6">
      <path class="cls-14" d="M130.38,630.38s-30.66-26.08-51.77-83.16l-29.52,81.91,81.28,1.25Z"/>
    </clipPath>
    <linearGradient id="linear-gradient-20" x1="-133.75" y1="-4897.24" x2="-169.51" y2="-4976.99" gradientTransform="translate(953.58 5475.49) rotate(-8.5)" gradientUnits="userSpaceOnUse">
      <stop offset="0" stop-color="#fff" stop-opacity="0"/>
      <stop offset=".09" stop-color="#fff" stop-opacity=".06"/>
      <stop offset=".27" stop-color="#fff" stop-opacity=".2"/>
      <stop offset=".51" stop-color="#fff" stop-opacity=".44"/>
      <stop offset=".8" stop-color="#fff" stop-opacity=".76"/>
      <stop offset="1" stop-color="#fff"/>
    </linearGradient>
    <clipPath id="clippath-7">
      <path class="cls-14" d="M419.99,573.24s-16.6,33.74-63.46,65.95l80.96,7.97-17.5-73.91Z"/>
    </clipPath>
    <linearGradient id="linear-gradient-21" x1="22159.66" y1="-134.95" x2="22138.97" y2="-181.09" gradientTransform="translate(9734.95 20714.76) rotate(-114.46)" xlink:href="#linear-gradient-12"/>
    <linearGradient id="linear-gradient-22" x1="1029.01" y1="487.39" x2="480.78" y2="487.39" gradientTransform="matrix(1,0,0,1,0,0)" xlink:href="#linear-gradient-4"/>
    <linearGradient id="linear-gradient-23" x1="166.97" y1="154.89" x2="777.61" y2="154.89" xlink:href="#linear-gradient"/>
  </defs>
  <path class="cls-29" d="M485.21,22.85h79.95c3.11,0,5.1,2.59,4.42,5.76-8.99,42.12-17.94,84.2-26.87,126.32-8.93,42.08-17.87,84.19-26.7,126.29-.67,3.16-3.77,5.73-7.05,5.73h-79.79c-3.28,0-5.24-2.56-4.59-5.73,8.85-42.1,17.78-84.21,26.7-126.29,8.93-42.11,17.88-84.19,26.87-126.32.68-3.16,3.93-5.76,7.05-5.76Z"/>
  <path class="cls-6" d="M606.52,43c14.91-12.41,33.92-20.15,52.76-20.15h228.4c3.28,0,5.24,2.59,4.59,5.76-3.44,16.48-7.05,32.96-10.49,49.44-.66,3.17-3.77,5.76-6.88,5.76h-182.68c-12.78,0-25.23,10.3-27.85,22.87-3.44,16.08-6.96,32.18-10.32,48.25-3.35,16.04-6.72,32.16-10.16,48.22-2.62,12.57,5.24,22.87,18.03,22.87h97.16c2.95-13.55,5.74-27.09,8.69-40.64h-73.73c-3.28,0-5.24-2.59-4.59-5.76,3.61-16.45,7.04-32.93,10.49-49.41.82-3.17,3.77-5.76,7.05-5.76h159.25c3.12,0,5.24,2.59,4.43,5.76-5.25,25.17-10.57,50.35-15.9,75.5-5.33,25.18-10.65,50.34-16.06,75.5-.66,3.17-3.93,5.73-7.05,5.73h-228.39c-18.84,0-34.52-7.75-44.08-20.12-9.61-12.45-13.76-29.58-9.83-48.43,4.59-21.15,8.93-42.32,13.43-63.46,4.51-21.17,9.01-42.31,13.6-63.49,3.93-18.86,15.24-36.02,30.14-48.44Z"/>
  <path class="cls-16" d="M923.61,22.85h79.95c3.11,0,5.1,2.59,4.42,5.76-8.99,42.12-17.94,84.2-26.87,126.32-8.93,42.08-17.87,84.19-26.7,126.29-.67,3.16-3.77,5.73-7.05,5.73h-79.79c-3.28,0-5.24-2.56-4.59-5.73,8.85-42.1,17.78-84.21,26.7-126.29,8.93-42.11,17.88-84.19,26.87-126.32.68-3.16,3.93-5.76,7.05-5.76Z"/>
  <g>
    <path class="cls-15" d="M463,430.59l11.16,20.08c-29.8,19.19-99.94,54.57-239.54,80.23,0,0,41.63,6.76,107.52,2.94-6.87,11.76-15.96,22.67-27.2,32.03-47.56,39.64-115.28,36.78-151.28-6.4-15.93-19.11-22.96-42.92-21.73-66.96,47.01-2.26,104.22-12.46,171.99-36.87,0,0-84.14,20.49-168.71,15.46,5.85-22.86,19.15-44.72,39.39-61.59,40.89-34.08,96.67-36.71,134.39-9.35-31.32,12.01-68.91,22.19-114.11,29.13,0,0,58.65-.71,125.71-19.15,1.82,1.85,3.6,3.75,5.28,5.77,9.77,11.73,16.18,25.22,19.4,39.45,20.49-7.42,48.07-17.86,71.45-28.25-5.31-20.66-15-40.23-29.29-57.37-56.15-67.36-161.81-71.83-236-9.99-74.19,61.84-88.81,166.58-32.66,233.94,56.15,67.36,161.81,71.83,236,9.99,26.4-22.01,45.25-49.46,56.06-78.71,26.3-4.39,54.5-10.54,84.03-19.06l11.83,21.29,59.18-96-112.86-.63Z"/>
    <g class="cls-31">
      <path class="cls-18" d="M342.13,533.84s51.52-3.8,78.69-8.86c27.17-5.05,39.93,27.06,39.93,27.06l86.73,8.34,83.98-70.02-10.76-67.54-96.42-34.85s-34.38,8.51-52.18,15.9c-17.8,7.39-34.31,37.58-34.31,37.58l-12.03,16.23-87.09,30.65s-73.47,21.99-89.25,27.25c-15.78,5.26-39.82,12.11-39.82,12.11l16.79,33.47s96.86-15.85,115.74-27.33Z"/>
      <path class="cls-12" d="M399.03,463.03s-1.52-80.27-86.63-110.68c-89.57-32.01-201.82,56.84-192.73,149.1,9.1,92.26,73.3,138.89,169.92,121.05,96.62-17.85,131.24-97.51,131.24-97.51l-6.54,102.56-21.85,46.71s-324.64,41.71-361.56-29.3c-36.92-71.01,30.41-319.14,64.92-340.34,34.51-21.2,271.08-43.08,301.36-14.34,30.28,28.74,56.49,148.93,45.67,158.44-10.82,9.51-43.8,14.32-43.8,14.32Z"/>
      <path class="cls-26" d="M234.61,530.9s207.76-7.23,341.25-99.68l-.55-21.12-115.96,10.41-17.16,14.29-207.58,96.1Z"/>
    </g>
    <path class="cls-21" d="M119.09,374.94s19.14-29.67,66.33-54.61l-74.62-16.21,8.3,70.82Z"/>
    <path class="cls-24" d="M130.38,630.38s-30.66-26.08-51.77-83.16l-29.52,81.91,81.28,1.25Z"/>
    <path class="cls-7" d="M377.96,319.57s33.36,20.11,62.45,71.31l15.37-82.84-77.82,11.53Z"/>
    <path class="cls-25" d="M419.99,573.24s-16.6,33.74-63.46,65.95l80.96,7.97-17.5-73.91Z"/>
    <g class="cls-17">
      <path class="cls-11" d="M455.78,308.04s-30.78,25.01-53.65,51.52l-38.82-44.85,9.75-24.86,64.04,1s32.18,2.35,18.68,17.2Z"/>
    </g>
    <path class="cls-2" d="M277.96,668.86s-37.95,8.76-94.47-7.79l46.58,70.2,47.89-62.41Z"/>
    <g class="cls-28">
      <path class="cls-10" d="M230.08,731.27s4.71-39.38,2.71-74.33l59.09,5.22,10.29,24.65-46.7,43.82s-24.76,20.7-25.39.64Z"/>
    </g>
    <path class="cls-1" d="M329.02,301.58s-37-12.16-94.78-.8l52.75-65.69,42.03,66.49Z"/>
    <g class="cls-22">
      <path class="cls-13" d="M286.81,236.66s-4.73,39.38-2.75,74.33l-59.09-5.25-10.28-24.65,46.73-43.8s24.77-20.69,25.39-.63Z"/>
    </g>
    <g class="cls-5">
      <path class="cls-8" d="M110.79,304.12s21.54,28.34,39.33,43.04l-33.89,39.62-5.99-21.65-3.74-35.7,4.29-25.31Z"/>
    </g>
    <path class="cls-32" d="M76.89,506.23s-4.83-39.06,17.73-94.13l-75.44,39.46,57.71,54.67Z"/>
    <g class="cls-20">
      <path class="cls-9" d="M19.19,451.56s38.69,8.86,64.41,8.73l-.68,58.12-20.6-14.25-28.71-27.87-14.42-24.72Z"/>
    </g>
    <g class="cls-3">
      <path class="cls-23" d="M22.67,647.02s49.92-35.36,85.24-52.46c35.32-17.1,57.71,69.26,57.71,69.26l-92.68,11.87-50.26-28.67Z"/>
    </g>
    <g class="cls-4">
      <path class="cls-27" d="M447.24,655.26s-34.72-27.84-53.75-49.13c-19.03-21.28,36.91-54.22,36.91-54.22l26.84,62.46-10,40.9Z"/>
    </g>
  </g>
  <path class="cls-19" d="M938.35,308.04h-108.6c-4.23,0-8.46,3.51-9.35,7.82-4.67,21.7-9.12,43.44-13.8,65.1-4.67,21.67-9.12,43.4-13.8,65.07h-163.12c4.67-21.67,9.12-43.4,13.8-65.07,4.67-21.66,9.12-43.4,13.8-65.1.89-4.31-1.78-7.82-6.01-7.82h-108.6c-4.23,0-8.46,3.51-9.35,7.82-6.69,31.28-13.35,62.55-19.99,93.82l62.65.35,37.7.21-19.78,32.09-59.18,96-18.98,30.8-17.57-31.63-3.73-6.72c-2.38.63-4.77,1.21-7.16,1.82-8.69,41-17.39,82-26.01,123l2.5,10.58c.81.35,1.74.56,2.8.56h108.37c4.45,0,8.68-3.48,9.57-7.78,4.67-21.67,9.12-43.4,13.8-65.07,4.67-21.67,9.12-43.41,13.8-65.11h163.12c-4.67,21.7-9.12,43.44-13.79,65.11-4.68,21.67-9.12,43.4-13.8,65.07-.89,4.3,1.56,7.78,6.01,7.78h108.38c4.45,0,8.68-3.48,9.57-7.78,12.02-57.18,24.15-114.38,36.28-171.53,12.13-57.2,24.25-114.36,36.49-171.57.89-4.31-1.78-7.82-6-7.82Z"/>
  <path class="cls-30" d="M115.29,283.41l16.21,3.52h86.69l48.92-60.93h-62.06c5.05-23.69,10.09-47.4,15.14-71.09,5.05-23.69,10.29-47.41,15.34-71.12h102.88c12.42,0,20.57,10.3,17.86,22.87-3.49,16.08-6.8,32.19-10.29,48.25-3.49,16.06-6.79,32.16-10.29,48.22-2.71,12.57-15.33,22.87-27.75,22.87h-1.62l38.44,60.8c17.48-1,34.76-8.42,48.79-20,14.98-12.36,26.45-29.57,30.48-48.43,4.51-21.14,8.93-42.31,13.39-63.46,4.47-21.15,8.88-42.32,13.4-63.49,4.02-18.87-.06-35.98-9.9-48.44-9.77-12.36-25.04-20.15-44.07-20.15h-234.1c-3.1,0-6.3,2.57-6.99,5.76-9.02,42.1-17.95,84.2-26.99,126.32-8.97,41.85-17.68,83.77-26.65,125.63l13.18,2.86Z"/>
</svg>