<?xml version="1.0" encoding="UTF-8"?>
<svg id="Layer_1" xmlns="http://www.w3.org/2000/svg" viewBox="0 0 1027.3 754.12">
  <defs>
    <style>
      .cls-1 {
        fill: #11224e;
      }

      .cls-2 {
        fill: none;
      }

      .cls-3 {
        fill: #f17720;
      }
    </style>
  </defs>
  <path class="cls-2" d="M463,430.59l11.16,20.08c-29.8,19.19-99.94,54.57-239.54,80.23,0,0,41.63,6.76,107.52,2.94-6.87,11.76-15.96,22.67-27.2,32.03-47.56,39.64-115.28,36.78-151.28-6.4-15.93-19.11-22.96-42.92-21.73-66.96,47.01-2.26,104.22-12.46,171.99-36.87,0,0-84.14,20.49-168.71,15.46,5.85-22.86,19.15-44.72,39.39-61.59,40.89-34.08,96.67-36.71,134.39-9.35-31.32,12.01-68.91,22.19-114.11,29.13,0,0,58.65-.71,125.71-19.15,1.82,1.85,3.6,3.75,5.28,5.77,9.77,11.73,16.18,25.22,19.4,39.45,20.49-7.42,48.07-17.86,71.45-28.25-5.31-20.66-15-40.23-29.29-57.37-56.15-67.36-161.81-71.83-236-9.99-74.19,61.84-88.81,166.58-32.66,233.94,56.15,67.36,161.81,71.83,236,9.99,26.4-22.01,45.25-49.46,56.06-78.71,26.3-4.39,54.5-10.54,84.03-19.06l11.83,21.29,59.18-96-112.86-.63Z"/>
  <path class="cls-3" d="M938.35,308.04h-108.6c-4.23,0-8.46,3.51-9.35,7.82-4.67,21.7-9.12,43.44-13.8,65.1-4.67,21.67-9.12,43.4-13.8,65.07h-163.12c4.67-21.67,9.12-43.4,13.8-65.07,4.67-21.66,9.12-43.4,13.8-65.1.89-4.31-1.78-7.82-6.01-7.82h-108.6c-4.23,0-8.46,3.51-9.35,7.82-6.69,31.28-13.35,62.55-19.99,93.82l62.65.35,37.7.21-19.78,32.09-59.18,96-18.98,30.8-17.57-31.63-3.73-6.72c-2.38.63-4.77,1.21-7.16,1.82-8.69,41-17.39,82-26.01,123l2.5,10.58c.81.35,1.74.56,2.8.56h108.37c4.45,0,8.68-3.48,9.57-7.78,4.67-21.67,9.12-43.4,13.8-65.07,4.67-21.67,9.12-43.41,13.8-65.11h163.12c-4.67,21.7-9.12,43.44-13.79,65.11-4.68,21.67-9.12,43.4-13.8,65.07-.89,4.3,1.56,7.78,6.01,7.78h108.38c4.45,0,8.68-3.48,9.57-7.78,12.02-57.18,24.15-114.38,36.28-171.53,12.13-57.2,24.25-114.36,36.49-171.57.89-4.31-1.78-7.82-6-7.82Z"/>
  <g>
    <path class="cls-1" d="M485.21,22.85h79.95c3.11,0,5.1,2.59,4.42,5.76-8.99,42.12-17.94,84.2-26.87,126.32-8.93,42.08-17.87,84.19-26.7,126.29-.67,3.16-3.77,5.73-7.05,5.73h-79.79c-3.28,0-5.24-2.56-4.59-5.73,8.85-42.1,17.78-84.21,26.7-126.29,8.93-42.11,17.88-84.19,26.87-126.32.68-3.16,3.93-5.76,7.05-5.76Z"/>
    <path class="cls-1" d="M606.52,43c14.91-12.41,33.92-20.15,52.76-20.15h228.4c3.28,0,5.24,2.59,4.59,5.76-3.44,16.48-7.05,32.96-10.49,49.44-.66,3.17-3.77,5.76-6.88,5.76h-182.68c-12.78,0-25.23,10.3-27.85,22.87-3.44,16.08-6.96,32.18-10.32,48.25-3.35,16.04-6.72,32.16-10.16,48.22-2.62,12.57,5.24,22.87,18.03,22.87h97.16c2.95-13.55,5.74-27.09,8.69-40.64h-73.73c-3.28,0-5.24-2.59-4.59-5.76,3.61-16.45,7.04-32.93,10.49-49.41.82-3.17,3.77-5.76,7.05-5.76h159.25c3.12,0,5.24,2.59,4.43,5.76-5.25,25.17-10.57,50.35-15.9,75.5-5.33,25.18-10.65,50.34-16.06,75.5-.66,3.17-3.93,5.73-7.05,5.73h-228.39c-18.84,0-34.52-7.75-44.08-20.12-9.61-12.45-13.76-29.58-9.83-48.43,4.59-21.15,8.93-42.32,13.43-63.46,4.51-21.17,9.01-42.31,13.6-63.49,3.93-18.86,15.24-36.02,30.14-48.44Z"/>
    <path class="cls-1" d="M923.61,22.85h79.95c3.11,0,5.1,2.59,4.42,5.76-8.99,42.12-17.94,84.2-26.87,126.32-8.93,42.08-17.87,84.19-26.7,126.29-.67,3.16-3.77,5.73-7.05,5.73h-79.79c-3.28,0-5.24-2.56-4.59-5.73,8.85-42.1,17.78-84.21,26.7-126.29,8.93-42.11,17.88-84.19,26.87-126.32.68-3.16,3.93-5.76,7.05-5.76Z"/>
    <path class="cls-1" d="M115.29,283.41l16.21,3.52h86.69l48.92-60.93h-62.06c5.05-23.69,10.09-47.4,15.14-71.09,5.05-23.69,10.29-47.41,15.34-71.12h102.88c12.42,0,20.57,10.3,17.86,22.87-3.49,16.08-6.8,32.19-10.29,48.25-3.49,16.06-6.79,32.16-10.29,48.22-2.71,12.57-15.33,22.87-27.75,22.87h-1.62l38.44,60.8c17.48-1,34.76-8.42,48.79-20,14.98-12.36,26.45-29.57,30.48-48.43,4.51-21.14,8.93-42.31,13.39-63.46,4.47-21.15,8.88-42.32,13.4-63.49,4.02-18.87-.06-35.98-9.9-48.44-9.77-12.36-25.04-20.15-44.07-20.15h-234.1c-3.1,0-6.3,2.57-6.99,5.76-9.02,42.1-17.95,84.2-26.99,126.32-8.97,41.85-17.68,83.77-26.65,125.63l13.18,2.86Z"/>
  </g>
  <g>
    <path class="cls-3" d="M314.93,565.88c-47.56,39.64-115.28,36.78-151.28-6.4-15.93-19.11-22.96-42.92-21.74-66.96,47.01-2.26,104.22-12.46,172-36.87,0,0-84.14,20.49-168.71,15.46,5.85-22.86,19.15-44.72,39.39-61.59,40.89-34.08,96.67-36.71,134.39-9.35-31.32,12.01-68.91,22.19-114.11,29.13,0,0,58.65-.71,125.71-19.15,1.82,1.85,3.6,3.75,5.28,5.77,9.77,11.73,16.18,25.22,19.4,39.45,20.49-7.42,48.07-17.85,71.45-28.25-5.31-20.66-15-40.23-29.29-57.37-56.15-67.36-161.81-71.83-236-9.99s-88.81,166.58-32.66,233.94,161.81,71.83,236,9.99c26.4-22.01,45.25-49.46,56.06-78.71-27.17,5.05-78.69,8.86-78.69,8.86-6.87,11.76-15.96,22.67-27.2,32.03Z"/>
    <path class="cls-3" d="M119.09,374.94s19.14-29.67,66.33-54.61l-74.62-16.21,8.3,70.82Z"/>
    <path class="cls-3" d="M130.38,630.38s-30.66-26.08-51.77-83.16l-29.52,81.91,81.28,1.25Z"/>
    <path class="cls-3" d="M377.96,319.57s33.36,20.11,62.45,71.31l15.37-82.84-77.82,11.53Z"/>
    <path class="cls-3" d="M419.99,573.24s-16.6,33.74-63.46,65.95l80.96,7.97-17.5-73.91Z"/>
    <path class="cls-3" d="M277.96,668.86s-37.95,8.76-94.47-7.79l46.58,70.2,47.89-62.41Z"/>
    <path class="cls-3" d="M329.02,301.58s-37-12.16-94.78-.8l52.75-65.69,42.03,66.49Z"/>
    <path class="cls-3" d="M76.89,506.23s-4.83-39.06,17.73-94.13l-75.44,39.46,57.71,54.67Z"/>
    <path class="cls-3" d="M516.68,527.22l59.18-96-112.86-.63,11.16,20.08c-29.79,19.19-99.94,54.57-239.54,80.23,0,0,41.63,6.76,107.52,2.94,0,0,51.52-3.8,78.69-8.86,26.3-4.39,54.5-10.54,84.03-19.06l11.83,21.29Z"/>
  </g>
</svg>