<?xml version="1.0" encoding="UTF-8"?>
<svg id="Layer_1" xmlns="http://www.w3.org/2000/svg" viewBox="0 0 113.39 113.39">
  <defs>
    <style>
      .cls-1 {
        fill: #11224e;
      }

      .cls-2 {
        fill: #f17720;
      }
    </style>
  </defs>
  <g>
    <path class="cls-1" d="M64.21,91.77h7.18c.58,0,1.05.24,1.35.62.3.38.43.91.3,1.48-.14.65-.27,1.3-.41,1.95s-.27,1.3-.41,1.94c-.12.58-.47,1.11-.93,1.48-.46.38-1.04.62-1.62.62h-7.18c-.1,0-.16-.08-.14-.18.28-1.29.54-2.58.82-3.87.28-1.29.55-2.58.83-3.87.02-.1.12-.18.21-.18h0ZM69.51,97.29c.11-.49.21-.99.32-1.48.11-.49.21-.99.32-1.48.08-.39-.17-.7-.55-.7h-3.15c-.15.73-.32,1.45-.47,2.18s-.31,1.45-.46,2.18h3.15c.38,0,.77-.32.85-.7h0Z"/>
    <path class="cls-1" d="M74.09,91.77h2.45c.09,0,.16.08.14.18-.28,1.29-.55,2.58-.82,3.87-.27,1.29-.55,2.58-.82,3.87-.02.1-.12.18-.22.18h-2.45c-.1,0-.16-.08-.14-.18.27-1.29.54-2.58.82-3.87.27-1.29.55-2.58.82-3.87.02-.1.12-.18.22-.18Z"/>
    <path class="cls-1" d="M77.81,92.38c.46-.38,1.04-.62,1.62-.62h7c.1,0,.16.08.14.18-.11.51-.22,1.01-.32,1.52-.02.1-.12.18-.21.18h-5.6c-.39,0-.77.32-.85.7-.11.49-.21.99-.32,1.48-.1.49-.21.99-.31,1.48-.08.39.16.7.55.7h2.98c.09-.42.18-.83.27-1.25h-2.26c-.1,0-.16-.08-.14-.18.11-.5.22-1.01.32-1.51.03-.1.12-.18.22-.18h4.88c.09,0,.16.08.14.18-.16.77-.32,1.54-.49,2.31-.16.77-.33,1.54-.49,2.31-.02.1-.12.18-.22.18h-7c-.58,0-1.06-.24-1.35-.62-.29-.38-.42-.91-.3-1.48.14-.65.27-1.3.41-1.94.14-.65.28-1.3.42-1.95.12-.58.47-1.1.92-1.48h0Z"/>
    <path class="cls-1" d="M87.53,91.77h2.45c.09,0,.16.08.14.18-.28,1.29-.55,2.58-.82,3.87-.27,1.29-.55,2.58-.82,3.87-.02.1-.12.18-.22.18h-2.45c-.1,0-.16-.08-.14-.18.27-1.29.54-2.58.82-3.87.27-1.29.55-2.58.82-3.87.02-.1.12-.18.22-.18Z"/>
    <path class="cls-2" d="M107.78,91.77h2.45c.09,0,.16.08.14.18-.28,1.29-.55,2.58-.82,3.87-.27,1.29-.55,2.58-.82,3.87-.02.1-.12.18-.22.18h-2.45c-.1,0-.16-.08-.14-.18.11-.49.21-.98.31-1.47.11-.49.21-.98.31-1.47h-3.68c-.11.49-.21.98-.31,1.47-.11.49-.21.98-.31,1.47-.02.1-.12.18-.22.18h-2.45c-.1,0-.16-.08-.14-.18.27-1.29.54-2.58.82-3.87.27-1.29.55-2.58.82-3.87.02-.1.12-.18.21-.18h2.45c.09,0,.16.08.14.18-.11.49-.21.98-.31,1.47-.11.49-.21.98-.31,1.47h3.68c.11-.49.21-.98.31-1.47.11-.49.21-.98.31-1.47.02-.1.12-.18.21-.18h0Z"/>
    <path class="cls-2" d="M89.84,95.81c.14-.65.28-1.3.42-1.95.25-1.16,1.4-2.1,2.55-2.1h5.6c1.16,0,1.9.95,1.65,2.1-.14.65-.28,1.3-.41,1.95-.14.65-.28,1.3-.42,1.95-.25,1.16-1.39,2.1-2.54,2.1h-5.6c-1.15,0-1.91-.95-1.66-2.1.13-.65.27-1.3.41-1.95h0ZM96.53,97.29c.11-.49.21-.99.32-1.48s.21-.99.32-1.48c.08-.38-.17-.7-.54-.7h-2.81c-.39,0-.77.32-.85.7-.11.49-.21.99-.31,1.48-.1.49-.21.99-.32,1.48-.08.39.17.7.55.7h2.8c.39,0,.76-.32.84-.7h0Z"/>
  </g>
  <g>
    <path class="cls-2" d="M88.82,42.39l2.58,3.71c-5.45,4.34-18.46,12.63-45.24,20.39,0,0,8.27.5,21.07-1.54-1.11,2.43-2.67,4.74-4.69,6.8-8.51,8.68-21.81,9.46-29.69,1.73-3.49-3.42-5.33-7.94-5.57-12.66,9.14-1.37,20.12-4.48,32.89-10.59,0,0-16.04,5.66-32.67,6.34.69-4.58,2.86-9.12,6.49-12.81,7.32-7.47,18.17-9.08,26.08-4.47-5.88,2.96-13.03,5.69-21.73,7.94,0,0,11.45-1.29,24.19-6.22.39.32.78.66,1.15,1.02,2.14,2.1,3.66,4.61,4.57,7.33,3.86-1.85,9.04-4.44,13.41-6.93-1.44-3.93-3.72-7.57-6.85-10.64-12.3-12.06-33.04-10.85-46.32,2.69-13.28,13.55-14.08,34.3-1.78,46.36,12.3,12.06,33.04,10.85,46.32-2.69,4.73-4.82,7.87-10.56,9.41-16.49,5.05-1.38,10.44-3.13,16.05-5.38l2.73,3.93,9.68-19.93-22.07,2.1h0Z"/>
    <path class="cls-2" d="M20.51,38.28s3.16-6.17,11.89-11.98l-14.9-1.7,3.02,13.68Z"/>
    <path class="cls-2" d="M27.74,87.98s-6.5-4.49-11.75-15.23l-4.16,16.59,15.91-1.36Z"/>
    <path class="cls-2" d="M70.02,22.37s6.91,3.27,13.61,12.71l1.37-16.49-14.98,3.78h0Z"/>
    <path class="cls-2" d="M83.22,71.12s-2.58,6.92-11.11,14.14l15.98-.04-4.87-14.1h0Z"/>
    <path class="cls-2" d="M57.35,92.6s-7.24,2.46-18.62.34l10.48,12.8,8.13-13.14h0Z"/>
    <path class="cls-2" d="M60.1,19.82s-7.47-1.65-18.54,1.71l9.02-13.88,9.52,12.17Z"/>
    <path class="cls-2" d="M14.85,64.77s-1.71-7.54,1.61-18.74l-13.97,9.2,12.35,9.55Z"/>
  </g>
</svg>