<?xml version="1.0" encoding="UTF-8"?>
<svg id="Layer_1" xmlns="http://www.w3.org/2000/svg" viewBox="0 0 170.08 56.69">
  <defs>
    <style>
      .cls-1 {
        fill: #11224e;
      }

      .cls-2 {
        fill: #f17720;
      }
    </style>
  </defs>
  <g>
    <path class="cls-2" d="M132.19,22.7l1.01,1.81c-2.69,1.73-9.02,4.93-21.63,7.24,0,0,3.76.61,9.71.27-.62,1.06-1.44,2.05-2.46,2.89-4.29,3.58-10.41,3.32-13.66-.58-1.44-1.73-2.07-3.87-1.96-6.05,4.24-.2,9.41-1.13,15.53-3.33,0,0-7.6,1.85-15.23,1.4.53-2.06,1.73-4.04,3.56-5.56,3.69-3.08,8.73-3.31,12.13-.84-2.83,1.08-6.22,2-10.3,2.63,0,0,5.3-.06,11.35-1.73.16.17.32.34.48.52.88,1.06,1.46,2.28,1.75,3.56,1.85-.67,4.34-1.61,6.45-2.55-.48-1.87-1.36-3.63-2.64-5.18-5.07-6.08-14.61-6.49-21.31-.9-6.7,5.58-8.02,15.04-2.95,21.12,5.07,6.08,14.61,6.49,21.31.9,2.38-1.99,4.09-4.47,5.06-7.11,2.37-.4,4.92-.95,7.59-1.72l1.07,1.92,5.34-8.67-10.19-.06h0Z"/>
    <path class="cls-2" d="M101.14,17.67s1.73-2.68,5.99-4.93l-6.74-1.46.75,6.39Z"/>
    <path class="cls-2" d="M102.16,40.74s-2.77-2.35-4.67-7.51l-2.67,7.4,7.34.11Z"/>
    <path class="cls-2" d="M124.52,12.67s3.01,1.82,5.64,6.44l1.39-7.48-7.03,1.04h0Z"/>
    <path class="cls-2" d="M128.31,35.58s-1.5,3.05-5.73,5.95l7.31.72-1.58-6.67h0Z"/>
    <path class="cls-2" d="M115.49,44.21s-3.43.79-8.53-.7l4.21,6.34,4.32-5.64h0Z"/>
    <path class="cls-2" d="M120.1,11.05s-3.34-1.1-8.56-.07l4.76-5.93,3.8,6h0Z"/>
    <path class="cls-2" d="M97.33,29.53s-.44-3.53,1.6-8.5l-6.81,3.56,5.21,4.94h0Z"/>
  </g>
  <path class="cls-1" d="M7.71,12.84h25.35c2.06,0,3.71.84,4.77,2.18,1.07,1.35,1.51,3.2,1.07,5.24-.49,2.29-.97,4.58-1.45,6.87-.48,2.29-.96,4.58-1.45,6.87-.44,2.04-1.68,3.91-3.3,5.24-1.64,1.35-3.68,2.18-5.72,2.18H1.64c-.36,0-.58-.27-.5-.62.98-4.56,1.92-9.12,2.9-13.67.98-4.56,1.94-9.12,2.92-13.68.07-.35.42-.62.76-.62h0ZM26.44,32.36c.38-1.74.74-3.48,1.11-5.22s.74-3.48,1.11-5.22c.29-1.36-.59-2.48-1.93-2.48h-11.14c-.55,2.57-1.11,5.14-1.66,7.7s-1.09,5.13-1.64,7.7h11.14c1.34,0,2.71-1.12,3.01-2.48h0Z"/>
  <path class="cls-1" d="M42.63,12.84h8.66c.34,0,.55.28.48.62-.97,4.56-1.94,9.12-2.91,13.68-.97,4.56-1.93,9.11-2.89,13.67-.07.34-.41.62-.76.62h-8.64c-.35,0-.57-.28-.5-.62.96-4.56,1.93-9.12,2.89-13.67.97-4.56,1.94-9.11,2.91-13.68.07-.34.43-.62.76-.62Z"/>
  <path class="cls-1" d="M55.76,15.02c1.61-1.34,3.67-2.18,5.71-2.18h24.73c.35,0,.57.28.5.62-.37,1.78-.76,3.57-1.14,5.35-.07.34-.41.62-.74.62h-19.78c-1.38,0-2.73,1.12-3.02,2.48-.37,1.74-.75,3.48-1.12,5.22-.36,1.74-.73,3.48-1.1,5.22-.28,1.36.57,2.48,1.95,2.48h10.52c.32-1.47.62-2.93.94-4.4h-7.98c-.35,0-.57-.28-.5-.62.39-1.78.76-3.57,1.14-5.35.09-.34.41-.62.76-.62h17.24c.34,0,.57.28.48.62-.57,2.72-1.14,5.45-1.72,8.17-.58,2.73-1.15,5.45-1.74,8.17-.07.34-.43.62-.76.62h-24.73c-2.04,0-3.74-.84-4.77-2.18-1.04-1.35-1.49-3.2-1.06-5.24.5-2.29.97-4.58,1.45-6.87.49-2.29.98-4.58,1.47-6.87.43-2.04,1.65-3.9,3.26-5.24h0Z"/>
  <path class="cls-1" d="M93.02,39.98l1.4-3.89c.39-1.86.78-3.71,1.18-5.56l-4.8-4.54-1.94-1.84,2.37-1.24,6.74-3.52c.31-1.46.62-2.92.93-4.38l-.25-2.15h-8.56c-.34,0-.69.28-.76.62-.97,4.56-1.94,9.12-2.91,13.68-.97,4.56-1.93,9.11-2.89,13.67-.07.34.14.62.5.62h8.47l.52-1.46h0Z"/>
  <g>
    <path class="cls-2" d="M142.39,20.84h2.01c.15-.72.31-1.46.47-2.19.37-1.73.73-3.46,1.1-5.19.07-.34-.14-.62-.48-.62h-8.66c-.34,0-.67.28-.75.62-.52,2.45-1.04,4.89-1.56,7.33l7.87.04h0Z"/>
    <path class="cls-2" d="M168.37,12.84h-8.66c-.34,0-.67.28-.74.62-.37,1.73-.73,3.46-1.1,5.19-.37,1.73-.73,3.46-1.1,5.19h-12.81l-5.29,8.59-1.71,2.78-1.59-2.86-.34-.61c-.99.26-1.98.5-2.98.72-.4,1.87-.79,3.74-1.19,5.61l.8,3.36h7.74c.35,0,.69-.28.76-.62.37-1.73.73-3.46,1.1-5.19.37-1.73.73-3.46,1.1-5.19h13c-.37,1.73-.73,3.46-1.1,5.19-.37,1.73-.73,3.46-1.1,5.19-.07.34.12.62.48.62h8.64c.35,0,.69-.28.76-.62.96-4.56,1.93-9.12,2.89-13.67.97-4.56,1.93-9.11,2.91-13.68.07-.34-.14-.62-.48-.62h0Z"/>
  </g>
</svg>