<?xml version="1.0" encoding="UTF-8"?>
<svg id="Layer_1" xmlns="http://www.w3.org/2000/svg" xmlns:xlink="http://www.w3.org/1999/xlink" viewBox="0 0 1088.35 965.42">
  <defs>
    <style>
      .cls-1 {
        fill: #ffa630;
      }

      .cls-2 {
        fill: #11224e;
      }

      .cls-3 {
        fill: none;
      }

      .cls-4 {
        fill: url(#linear-gradient);
      }

      .cls-5 {
        clip-path: url(#clippath);
      }
    </style>
    <clipPath id="clippath">
      <path class="cls-3" d="M-270.41,345.69l24.68,35.5c-52.17,41.54-176.85,121.03-433.42,195.39,0,0,79.23,4.81,201.89-14.76-10.65,23.32-25.61,45.45-44.89,65.11-81.57,83.19-208.94,90.6-284.47,16.53-33.43-32.78-51.08-76.04-53.32-121.28,87.59-13.1,192.81-42.97,315.11-101.46,0,0-153.69,54.23-312.99,60.75,6.65-43.92,27.43-87.34,62.14-122.75,70.14-71.53,174.09-86.97,249.88-42.84-56.37,28.38-124.85,54.55-208.17,76.05,0,0,109.69-12.38,231.78-59.56,3.76,3.11,7.44,6.35,10.98,9.82,20.51,20.11,35.04,44.18,43.77,70.22,36.96-17.75,86.65-42.5,128.46-66.37-13.83-37.69-35.68-72.49-65.66-101.9-117.84-115.54-316.53-104-443.79,25.79-127.26,129.79-134.9,328.67-17.06,444.21,117.84,115.54,316.53,104,443.79-25.79,45.29-46.19,75.4-101.14,90.13-157.96,48.42-13.18,100.07-30.01,153.75-51.53l26.16,37.64,92.71-190.92-211.45,20.11Z"/>
    </clipPath>
    <linearGradient id="linear-gradient" x1="286.85" y1="546.05" x2="-328.96" y2="666.04" gradientTransform="translate(-363.34 -130.16) rotate(-7.25)" gradientUnits="userSpaceOnUse">
      <stop offset="0" stop-color="#11224e"/>
      <stop offset=".17" stop-color="#365389"/>
      <stop offset=".31" stop-color="#5175b3"/>
      <stop offset=".38" stop-color="#5c83c4"/>
      <stop offset=".52" stop-color="#878c9c"/>
      <stop offset=".83" stop-color="#dc9e4e"/>
      <stop offset=".96" stop-color="#ffa630"/>
    </linearGradient>
  </defs>
  <g>
    <g>
      <path class="cls-2" d="M608.23,818.76h68.75c5.59,0,10.07,2.29,12.94,5.92,2.89,3.66,4.09,8.68,2.91,14.22-1.33,6.22-2.62,12.43-3.93,18.64-1.31,6.21-2.61,12.43-3.93,18.63-1.18,5.54-4.55,10.59-8.95,14.22-4.44,3.66-9.98,5.91-15.5,5.91h-68.75c-.97,0-1.57-.75-1.37-1.68,2.65-12.36,5.22-24.73,7.87-37.08,2.65-12.37,5.27-24.73,7.92-37.09.2-.94,1.14-1.69,2.05-1.69ZM659.02,871.7c1.03-4.72,2-9.45,3.02-14.16,1.03-4.72,2-9.45,3.02-14.17.8-3.69-1.6-6.72-5.24-6.72h-30.21c-1.48,6.96-3.02,13.93-4.5,20.89-1.48,6.96-2.96,13.92-4.45,20.88h30.21c3.65,0,7.35-3.02,8.15-6.72Z"/>
      <path class="cls-2" d="M702.93,818.76h23.48c.91,0,1.5.76,1.3,1.69-2.64,12.37-5.27,24.73-7.89,37.09-2.62,12.36-5.25,24.72-7.84,37.08-.2.93-1.11,1.68-2.07,1.68h-23.43c-.96,0-1.54-.75-1.35-1.68,2.6-12.36,5.22-24.73,7.84-37.08,2.62-12.37,5.25-24.72,7.89-37.09.2-.93,1.15-1.69,2.07-1.69Z"/>
      <path class="cls-2" d="M738.55,824.67c4.38-3.64,9.96-5.92,15.49-5.92h67.07c.96,0,1.54.76,1.35,1.69-1.01,4.84-2.07,9.68-3.08,14.52-.19.93-1.11,1.69-2.02,1.69h-53.65c-3.75,0-7.41,3.02-8.18,6.72-1.01,4.72-2.04,9.45-3.03,14.17-.98,4.71-1.97,9.44-2.98,14.16-.77,3.69,1.54,6.72,5.29,6.72h28.53c.87-3.98,1.68-7.96,2.55-11.93h-21.65c-.96,0-1.54-.76-1.35-1.69,1.06-4.83,2.07-9.67,3.08-14.51.24-.93,1.11-1.69,2.07-1.69h46.77c.91,0,1.54.76,1.3,1.69-1.54,7.39-3.11,14.79-4.67,22.17-1.56,7.4-3.13,14.78-4.71,22.17-.19.93-1.15,1.68-2.07,1.68h-67.07c-5.53,0-10.14-2.28-12.94-5.91-2.82-3.66-4.04-8.69-2.89-14.22,1.35-6.21,2.62-12.43,3.94-18.63,1.33-6.22,2.65-12.42,3.99-18.64,1.15-5.54,4.47-10.58,8.85-14.22Z"/>
      <path class="cls-2" d="M831.67,818.76h23.48c.91,0,1.5.76,1.3,1.69-2.64,12.37-5.27,24.73-7.89,37.09-2.62,12.36-5.25,24.72-7.84,37.08-.2.93-1.11,1.68-2.07,1.68h-23.43c-.96,0-1.54-.75-1.35-1.68,2.6-12.36,5.22-24.73,7.84-37.08,2.62-12.37,5.25-24.72,7.89-37.09.2-.93,1.15-1.69,2.07-1.69Z"/>
      <path class="cls-1" d="M1025.67,818.76h23.48c.91,0,1.49.76,1.3,1.69-2.65,12.37-5.27,24.73-7.89,37.09-2.62,12.36-5.24,24.72-7.84,37.08-.19.93-1.11,1.68-2.07,1.68h-23.43c-.96,0-1.49-.75-1.3-1.68,1.01-4.68,1.97-9.38,2.98-14.07,1.01-4.68,1.97-9.38,2.98-14.08h-35.27c-1.01,4.69-1.97,9.39-2.98,14.08-1.01,4.68-1.97,9.38-2.98,14.07-.19.93-1.11,1.68-2.07,1.68h-23.43c-.96,0-1.49-.75-1.3-1.68,2.6-12.36,5.22-24.73,7.84-37.08,2.62-12.37,5.24-24.72,7.89-37.09.19-.93,1.11-1.69,2.02-1.69h23.48c.91,0,1.49.76,1.3,1.69-1.01,4.69-1.97,9.39-2.98,14.08-1.01,4.68-1.97,9.38-2.98,14.07h35.27c1.01-4.68,1.97-9.38,2.98-14.07,1.01-4.68,1.97-9.38,2.98-14.08.19-.93,1.11-1.69,2.02-1.69Z"/>
      <path class="cls-1" d="M853.84,857.53c1.33-6.21,2.67-12.43,4-18.66,2.36-11.08,13.37-20.14,24.43-20.14h53.68c11.11,0,18.19,9.07,15.83,20.14-1.33,6.22-2.64,12.45-3.94,18.66-1.31,6.22-2.67,12.42-3.99,18.64-2.36,11.08-13.32,20.14-24.38,20.14h-53.68c-11.06,0-18.29-9.06-15.88-20.14,1.28-6.21,2.61-12.43,3.94-18.64ZM917.92,871.69c1.01-4.73,2-9.45,3.02-14.17,1.02-4.72,2.01-9.45,3.02-14.17.78-3.68-1.59-6.71-5.22-6.71h-26.89c-3.69,0-7.36,3.02-8.14,6.71-1.01,4.72-1.97,9.45-2.97,14.17-1,4.73-2.02,9.46-3.02,14.17-.79,3.7,1.59,6.71,5.28,6.71h26.84c3.69,0,7.31-3.02,8.09-6.71Z"/>
    </g>
    <g>
      <path class="cls-1" d="M844.03,345.69l24.68,35.5c-52.17,41.54-176.85,121.03-433.42,195.39,0,0,79.23,4.81,201.89-14.76-10.65,23.32-25.61,45.45-44.89,65.11-81.57,83.19-208.94,90.6-284.47,16.53-33.43-32.78-51.08-76.04-53.32-121.28,87.59-13.1,192.81-42.97,315.11-101.46,0,0-153.69,54.23-312.99,60.75,6.65-43.92,27.43-87.34,62.14-122.75,70.14-71.53,174.09-86.97,249.88-42.84-56.37,28.38-124.85,54.55-208.17,76.05,0,0,109.69-12.38,231.78-59.56,3.76,3.11,7.44,6.35,10.98,9.82,20.51,20.11,35.04,44.18,43.77,70.22,36.96-17.75,86.65-42.5,128.46-66.37-13.83-37.69-35.68-72.49-65.66-101.9-117.84-115.54-316.53-104-443.79,25.79-127.26,129.79-134.9,328.67-17.06,444.21,117.84,115.54,316.53,104,443.79-25.79,45.29-46.19,75.4-101.14,90.13-157.96,48.42-13.18,100.07-30.01,153.75-51.53l26.16,37.64,92.71-190.92-211.45,20.11Z"/>
      <path class="cls-1" d="M189.57,306.31s30.24-59.16,113.9-114.76l-142.79-16.28,28.89,131.04Z"/>
      <path class="cls-1" d="M258.86,782.5s-62.32-43.05-112.61-145.95l-39.83,158.94,152.44-12.99Z"/>
      <path class="cls-1" d="M663.87,153.84s66.25,31.36,130.38,121.76l13.16-158.01-143.54,36.26Z"/>
      <path class="cls-1" d="M790.39,620.91s-24.72,66.31-106.4,135.45l153.09-.35-46.69-135.1Z"/>
      <path class="cls-1" d="M542.47,826.73s-69.41,23.55-178.36,3.21l100.45,122.68,77.9-125.89Z"/>
      <path class="cls-1" d="M568.83,129.38s-71.58-15.79-177.63,16.37L477.59,12.8l91.24,116.58Z"/>
      <path class="cls-1" d="M135.31,560.11s-16.4-72.23,15.45-179.59L16.95,468.63l118.36,91.48Z"/>
    </g>
  </g>
  <g class="cls-5">
    <path class="cls-4" d="M-477.26,561.81s95.75-16.83,145.68-31.42c49.93-14.59,79.88,43.14,79.88,43.14l163.97-.73L56.32,425.87l-32.89-124.44-187.11-47.08s-62.77,22.42-94.71,39.61c-31.94,17.19-57.17,76.83-57.17,76.83l-19.47,32.66-157.3,73.81s-133.44,55.03-161.99,67.85c-28.56,12.82-72.28,30.19-72.28,30.19l37.75,59.51s178.38-47.93,211.58-73Z"/>
  </g>
</svg>