<?xml version="1.0" encoding="UTF-8"?>
<svg id="Layer_1" xmlns="http://www.w3.org/2000/svg" xmlns:xlink="http://www.w3.org/1999/xlink" viewBox="0 0 1088.35 965.42">
  <defs>
    <style>
      .cls-1 {
        fill: url(#linear-gradient-13);
      }

      .cls-2 {
        clip-path: url(#clippath-6);
      }

      .cls-3 {
        clip-path: url(#clippath-7);
      }

      .cls-4 {
        fill: url(#linear-gradient-20);
      }

      .cls-4, .cls-5, .cls-6, .cls-7, .cls-8, .cls-9 {
        opacity: .3;
      }

      .cls-10 {
        clip-path: url(#clippath-4);
      }

      .cls-11 {
        fill: url(#linear-gradient-2);
      }

      .cls-12 {
        fill: url(#linear-gradient-12);
      }

      .cls-5 {
        fill: url(#linear-gradient-15);
      }

      .cls-6 {
        fill: url(#linear-gradient-17);
      }

      .cls-7 {
        fill: url(#linear-gradient-19);
      }

      .cls-13 {
        fill: none;
      }

      .cls-14 {
        fill: url(#linear-gradient-4);
      }

      .cls-15 {
        fill: url(#linear-gradient-3);
      }

      .cls-16 {
        clip-path: url(#clippath-1);
      }

      .cls-17 {
        fill: url(#linear-gradient-5);
      }

      .cls-18 {
        fill: url(#linear-gradient-24);
      }

      .cls-19 {
        clip-path: url(#clippath-5);
      }

      .cls-20 {
        fill: url(#linear-gradient-8);
      }

      .cls-21 {
        clip-path: url(#clippath-3);
      }

      .cls-22 {
        fill: url(#linear-gradient-14);
      }

      .cls-8 {
        fill: url(#linear-gradient-9);
      }

      .cls-23 {
        fill: url(#linear-gradient-7);
      }

      .cls-9 {
        fill: url(#linear-gradient-22);
      }

      .cls-24 {
        fill: url(#linear-gradient-11);
      }

      .cls-25 {
        fill: url(#linear-gradient-6);
      }

      .cls-26 {
        fill: url(#linear-gradient-21);
      }

      .cls-27 {
        clip-path: url(#clippath-2);
      }

      .cls-28 {
        fill: url(#linear-gradient-16);
      }

      .cls-29 {
        fill: url(#linear-gradient-10);
        opacity: .6;
      }

      .cls-30 {
        fill: url(#linear-gradient);
      }

      .cls-31 {
        fill: url(#linear-gradient-23);
      }

      .cls-32 {
        clip-path: url(#clippath);
      }

      .cls-33 {
        fill: url(#linear-gradient-18);
      }
    </style>
    <linearGradient id="linear-gradient" x1="609.41" y1="857.53" x2="788.87" y2="857.53" gradientUnits="userSpaceOnUse">
      <stop offset="0" stop-color="#11224e"/>
      <stop offset="1" stop-color="#5c83c4"/>
    </linearGradient>
    <linearGradient id="linear-gradient-2" x1="609.41" x2="788.87" xlink:href="#linear-gradient"/>
    <linearGradient id="linear-gradient-3" x1="609.41" x2="788.87" xlink:href="#linear-gradient"/>
    <linearGradient id="linear-gradient-4" x1="609.41" x2="788.87" xlink:href="#linear-gradient"/>
    <linearGradient id="linear-gradient-5" x1="851.25" y1="857.53" x2="981.95" y2="857.53" gradientUnits="userSpaceOnUse">
      <stop offset="0" stop-color="#f17720"/>
      <stop offset=".58" stop-color="#f9942a"/>
      <stop offset="1" stop-color="#ffa630"/>
    </linearGradient>
    <linearGradient id="linear-gradient-6" x1="851.25" y1="857.52" x2="981.95" y2="857.52" xlink:href="#linear-gradient-5"/>
    <linearGradient id="linear-gradient-7" x1="501.98" y1="910.99" x2="978.85" y2="434.12" gradientTransform="translate(-354.44 10.43) rotate(-7.25)" xlink:href="#linear-gradient-5"/>
    <clipPath id="clippath">
      <path class="cls-13" d="M844.03,345.69l24.68,35.5c-52.17,41.54-176.85,121.03-433.42,195.39,0,0,79.23,4.81,201.89-14.76-10.65,23.32-25.61,45.45-44.89,65.11-81.57,83.19-208.94,90.6-284.47,16.53-33.43-32.78-51.08-76.04-53.32-121.28,87.59-13.1,192.81-42.97,315.11-101.46,0,0-153.69,54.23-312.99,60.75,6.65-43.92,27.43-87.34,62.14-122.75,70.14-71.53,174.09-86.97,249.88-42.84-56.37,28.38-124.85,54.55-208.17,76.05,0,0,109.69-12.38,231.78-59.56,3.76,3.11,7.44,6.35,10.98,9.82,20.51,20.11,35.04,44.18,43.77,70.22,36.96-17.75,86.65-42.5,128.46-66.37-13.83-37.69-35.68-72.49-65.66-101.9-117.84-115.54-316.53-104-443.79,25.79-127.26,129.79-134.9,328.67-17.06,444.21,117.84,115.54,316.53,104,443.79-25.79,45.29-46.19,75.4-101.14,90.13-157.96,48.42-13.18,100.07-30.01,153.75-51.53l26.16,37.64,92.71-190.92-211.45,20.11Z"/>
    </clipPath>
    <linearGradient id="linear-gradient-8" x1="1401.29" y1="546.05" x2="785.47" y2="666.04" gradientTransform="translate(-354.44 10.43) rotate(-7.25)" gradientUnits="userSpaceOnUse">
      <stop offset="0" stop-color="#11224e"/>
      <stop offset=".17" stop-color="#365389"/>
      <stop offset=".31" stop-color="#5175b3"/>
      <stop offset=".38" stop-color="#5c83c4"/>
      <stop offset=".52" stop-color="#878c9c"/>
      <stop offset=".83" stop-color="#dc9e4e"/>
      <stop offset=".96" stop-color="#ffa630"/>
    </linearGradient>
    <linearGradient id="linear-gradient-9" x1="573.69" y1="311.08" x2="814.85" y2="831.45" gradientTransform="translate(-354.44 10.43) rotate(-7.25)" gradientUnits="userSpaceOnUse">
      <stop offset="0" stop-color="#fff"/>
      <stop offset=".12" stop-color="#fff" stop-opacity=".82"/>
      <stop offset=".3" stop-color="#fff" stop-opacity=".58"/>
      <stop offset=".48" stop-color="#fff" stop-opacity=".37"/>
      <stop offset=".64" stop-color="#fff" stop-opacity=".21"/>
      <stop offset=".78" stop-color="#fff" stop-opacity=".09"/>
      <stop offset=".91" stop-color="#fff" stop-opacity=".02"/>
      <stop offset="1" stop-color="#fff" stop-opacity="0"/>
    </linearGradient>
    <linearGradient id="linear-gradient-10" x1="1021.09" y1="509.17" x2="1058.87" y2="632.4" xlink:href="#linear-gradient-9"/>
    <linearGradient id="linear-gradient-11" x1="2492.44" y1="-2068.38" x2="2822.94" y2="-2398.88" gradientTransform="translate(-1359 3049.73) rotate(-21.21)" xlink:href="#linear-gradient-5"/>
    <linearGradient id="linear-gradient-12" x1="18021.52" y1="-2340.73" x2="18398.33" y2="-2717.54" gradientTransform="translate(6692.66 17699.52) rotate(-103.65)" xlink:href="#linear-gradient-5"/>
    <linearGradient id="linear-gradient-13" x1="1791.31" y1="14866.81" x2="2155.94" y2="14502.18" gradientTransform="translate(13751.02 -7267.86) rotate(67.04)" xlink:href="#linear-gradient-5"/>
    <linearGradient id="linear-gradient-14" x1="17794.82" y1="16491.49" x2="18146.89" y2="16139.43" gradientTransform="translate(24210.56 6985.2) rotate(152.15)" xlink:href="#linear-gradient-5"/>
    <clipPath id="clippath-1">
      <path class="cls-13" d="M663.87,153.84s66.25,31.36,130.38,121.76l13.16-158.01-143.54,36.26Z"/>
    </clipPath>
    <linearGradient id="linear-gradient-15" x1="1467.48" y1="-438.34" x2="1527.78" y2="-358.86" gradientTransform="translate(-656.46 829.03) rotate(-11.93)" gradientUnits="userSpaceOnUse">
      <stop offset="0" stop-color="#fff" stop-opacity="0"/>
      <stop offset=".09" stop-color="#fff" stop-opacity=".02"/>
      <stop offset=".22" stop-color="#fff" stop-opacity=".09"/>
      <stop offset=".36" stop-color="#fff" stop-opacity=".21"/>
      <stop offset=".52" stop-color="#fff" stop-opacity=".37"/>
      <stop offset=".7" stop-color="#fff" stop-opacity=".58"/>
      <stop offset=".88" stop-color="#fff" stop-opacity=".82"/>
      <stop offset="1" stop-color="#fff"/>
    </linearGradient>
    <linearGradient id="linear-gradient-16" x1="25939.97" y1="9810.56" x2="25894.05" y2="9679.17" gradientTransform="translate(20509.61 19962.84) rotate(-157.03)" xlink:href="#linear-gradient-5"/>
    <clipPath id="clippath-2">
      <path class="cls-13" d="M542.47,826.73s-69.41,23.55-178.36,3.21l100.45,122.68,77.9-125.89Z"/>
    </clipPath>
    <linearGradient id="linear-gradient-17" x1="11106.73" y1="22258.82" x2="11167.03" y2="22338.31" gradientTransform="translate(25228.39 4124.02) rotate(124)" xlink:href="#linear-gradient-15"/>
    <linearGradient id="linear-gradient-18" x1="18856.39" y1="-4239.26" x2="18789.57" y2="-4361.6" gradientTransform="translate(19002.18 -5355.89) rotate(150.73) scale(1 -1)" xlink:href="#linear-gradient-5"/>
    <clipPath id="clippath-3">
      <path class="cls-13" d="M568.83,129.38s-71.58-15.79-177.63,16.37L477.59,12.8l91.24,116.58Z"/>
    </clipPath>
    <linearGradient id="linear-gradient-19" x1="10534.3" y1="-4551.35" x2="10594.6" y2="-4471.86" gradientTransform="translate(-1745.01 11360.78) rotate(-55.97)" xlink:href="#linear-gradient-15"/>
    <clipPath id="clippath-4">
      <path class="cls-13" d="M189.57,306.31s30.24-59.16,113.9-114.76l-142.79-16.28,28.89,131.04Z"/>
    </clipPath>
    <linearGradient id="linear-gradient-20" x1="2408.39" y1="-2036.54" x2="2484.85" y2="-2076.2" gradientTransform="translate(-1359 3049.73) rotate(-21.21)" xlink:href="#linear-gradient-15"/>
    <linearGradient id="linear-gradient-21" x1="11144.97" y1="-4460.84" x2="11113.38" y2="-4571.29" gradientTransform="translate(-1321.41 12387.38) rotate(-61.08)" xlink:href="#linear-gradient-5"/>
    <clipPath id="clippath-5">
      <path class="cls-13" d="M135.31,560.11s-16.4-72.23,15.45-179.59L16.95,468.63l118.36,91.48Z"/>
    </clipPath>
    <linearGradient id="linear-gradient-22" x1="11025.74" y1="-4488.17" x2="11110.97" y2="-4532.38" gradientTransform="translate(-1321.41 12387.38) rotate(-61.08)" xlink:href="#linear-gradient-15"/>
    <clipPath id="clippath-6">
      <path class="cls-13" d="M258.86,782.5s-62.32-43.05-112.61-145.95l-39.83,158.94,152.44-12.99Z"/>
    </clipPath>
    <linearGradient id="linear-gradient-23" x1="-435.39" y1="-4942.68" x2="-502.71" y2="-5092.78" gradientTransform="translate(1839.88 5512.28) rotate(-14.25)" gradientUnits="userSpaceOnUse">
      <stop offset="0" stop-color="#fff" stop-opacity="0"/>
      <stop offset=".09" stop-color="#fff" stop-opacity=".06"/>
      <stop offset=".27" stop-color="#fff" stop-opacity=".2"/>
      <stop offset=".51" stop-color="#fff" stop-opacity=".44"/>
      <stop offset=".8" stop-color="#fff" stop-opacity=".76"/>
      <stop offset="1" stop-color="#fff"/>
    </linearGradient>
    <clipPath id="clippath-7">
      <path class="cls-13" d="M790.39,620.91s-24.72,66.31-106.4,135.45l153.09-.35-46.69-135.1Z"/>
    </clipPath>
    <linearGradient id="linear-gradient-24" x1="20863.29" y1="-1719.42" x2="20824.34" y2="-1806.25" gradientTransform="translate(12811.4 17831.68) rotate(-120.21)" xlink:href="#linear-gradient-15"/>
  </defs>
  <g>
    <path class="cls-30" d="M608.23,818.76h68.75c5.59,0,10.07,2.29,12.94,5.92,2.89,3.66,4.09,8.68,2.91,14.22-1.33,6.22-2.62,12.43-3.93,18.64-1.31,6.21-2.61,12.43-3.93,18.63-1.18,5.54-4.55,10.59-8.95,14.22-4.44,3.66-9.98,5.91-15.5,5.91h-68.75c-.97,0-1.57-.75-1.37-1.68,2.65-12.36,5.22-24.73,7.87-37.08,2.65-12.37,5.27-24.73,7.92-37.09.2-.94,1.14-1.69,2.05-1.69ZM659.02,871.7c1.03-4.72,2-9.45,3.02-14.16,1.03-4.72,2-9.45,3.02-14.17.8-3.69-1.6-6.72-5.24-6.72h-30.21c-1.48,6.96-3.02,13.93-4.5,20.89-1.48,6.96-2.96,13.92-4.45,20.88h30.21c3.65,0,7.35-3.02,8.15-6.72Z"/>
    <path class="cls-11" d="M702.93,818.76h23.48c.91,0,1.5.76,1.3,1.69-2.64,12.37-5.27,24.73-7.89,37.09-2.62,12.36-5.25,24.72-7.84,37.08-.2.93-1.11,1.68-2.07,1.68h-23.43c-.96,0-1.54-.75-1.35-1.68,2.6-12.36,5.22-24.73,7.84-37.08,2.62-12.37,5.25-24.72,7.89-37.09.2-.93,1.15-1.69,2.07-1.69Z"/>
    <path class="cls-15" d="M738.55,824.67c4.38-3.64,9.96-5.92,15.49-5.92h67.07c.96,0,1.54.76,1.35,1.69-1.01,4.84-2.07,9.68-3.08,14.52-.19.93-1.11,1.69-2.02,1.69h-53.65c-3.75,0-7.41,3.02-8.18,6.72-1.01,4.72-2.04,9.45-3.03,14.17-.98,4.71-1.97,9.44-2.98,14.16-.77,3.69,1.54,6.72,5.29,6.72h28.53c.87-3.98,1.68-7.96,2.55-11.93h-21.65c-.96,0-1.54-.76-1.35-1.69,1.06-4.83,2.07-9.67,3.08-14.51.24-.93,1.11-1.69,2.07-1.69h46.77c.91,0,1.54.76,1.3,1.69-1.54,7.39-3.11,14.79-4.67,22.17-1.56,7.4-3.13,14.78-4.71,22.17-.19.93-1.15,1.68-2.07,1.68h-67.07c-5.53,0-10.14-2.28-12.94-5.91-2.82-3.66-4.04-8.69-2.89-14.22,1.35-6.21,2.62-12.43,3.94-18.63,1.33-6.22,2.65-12.42,3.99-18.64,1.15-5.54,4.47-10.58,8.85-14.22Z"/>
    <path class="cls-14" d="M831.67,818.76h23.48c.91,0,1.5.76,1.3,1.69-2.64,12.37-5.27,24.73-7.89,37.09-2.62,12.36-5.25,24.72-7.84,37.08-.2.93-1.11,1.68-2.07,1.68h-23.43c-.96,0-1.54-.75-1.35-1.68,2.6-12.36,5.22-24.73,7.84-37.08,2.62-12.37,5.25-24.72,7.89-37.09.2-.93,1.15-1.69,2.07-1.69Z"/>
    <path class="cls-17" d="M1025.67,818.76h23.48c.91,0,1.49.76,1.3,1.69-2.65,12.37-5.27,24.73-7.89,37.09-2.62,12.36-5.24,24.72-7.84,37.08-.19.93-1.11,1.68-2.07,1.68h-23.43c-.96,0-1.49-.75-1.3-1.68,1.01-4.68,1.97-9.38,2.98-14.07,1.01-4.68,1.97-9.38,2.98-14.08h-35.27c-1.01,4.69-1.97,9.39-2.98,14.08-1.01,4.68-1.97,9.38-2.98,14.07-.19.93-1.11,1.68-2.07,1.68h-23.43c-.96,0-1.49-.75-1.3-1.68,2.6-12.36,5.22-24.73,7.84-37.08,2.62-12.37,5.24-24.72,7.89-37.09.19-.93,1.11-1.69,2.02-1.69h23.48c.91,0,1.49.76,1.3,1.69-1.01,4.69-1.97,9.39-2.98,14.08-1.01,4.68-1.97,9.38-2.98,14.07h35.27c1.01-4.68,1.97-9.38,2.98-14.07,1.01-4.68,1.97-9.38,2.98-14.08.19-.93,1.11-1.69,2.02-1.69Z"/>
    <path class="cls-25" d="M853.84,857.53c1.33-6.21,2.67-12.43,4-18.66,2.36-11.08,13.37-20.14,24.43-20.14h53.68c11.11,0,18.19,9.07,15.83,20.14-1.33,6.22-2.64,12.45-3.94,18.66-1.31,6.22-2.67,12.42-3.99,18.64-2.36,11.08-13.32,20.14-24.38,20.14h-53.68c-11.06,0-18.29-9.06-15.88-20.14,1.28-6.21,2.61-12.43,3.94-18.64ZM917.92,871.69c1.01-4.73,2-9.45,3.02-14.17,1.02-4.72,2.01-9.45,3.02-14.17.78-3.68-1.59-6.71-5.22-6.71h-26.89c-3.69,0-7.36,3.02-8.14,6.71-1.01,4.72-1.97,9.45-2.97,14.17-1,4.73-2.02,9.46-3.02,14.17-.79,3.7,1.59,6.71,5.28,6.71h26.84c3.69,0,7.31-3.02,8.09-6.71Z"/>
  </g>
  <g>
    <path class="cls-23" d="M844.03,345.69l24.68,35.5c-52.17,41.54-176.85,121.03-433.42,195.39,0,0,79.23,4.81,201.89-14.76-10.65,23.32-25.61,45.45-44.89,65.11-81.57,83.19-208.94,90.6-284.47,16.53-33.43-32.78-51.08-76.04-53.32-121.28,87.59-13.1,192.81-42.97,315.11-101.46,0,0-153.69,54.23-312.99,60.75,6.65-43.92,27.43-87.34,62.14-122.75,70.14-71.53,174.09-86.97,249.88-42.84-56.37,28.38-124.85,54.55-208.17,76.05,0,0,109.69-12.38,231.78-59.56,3.76,3.11,7.44,6.35,10.98,9.82,20.51,20.11,35.04,44.18,43.77,70.22,36.96-17.75,86.65-42.5,128.46-66.37-13.83-37.69-35.68-72.49-65.66-101.9-117.84-115.54-316.53-104-443.79,25.79-127.26,129.79-134.9,328.67-17.06,444.21,117.84,115.54,316.53,104,443.79-25.79,45.29-46.19,75.4-101.14,90.13-157.96,48.42-13.18,100.07-30.01,153.75-51.53l26.16,37.64,92.71-190.92-211.45,20.11Z"/>
    <g class="cls-32">
      <path class="cls-20" d="M637.18,561.81s95.75-16.83,145.68-31.42c49.93-14.59,79.88,43.14,79.88,43.14l163.97-.73,144.06-146.94-32.89-124.44-187.11-47.08s-62.77,22.42-94.71,39.61c-31.94,17.19-57.17,76.83-57.17,76.83l-19.47,32.66-157.3,73.81s-133.44,55.03-161.99,67.85c-28.56,12.82-72.28,30.19-72.28,30.19l37.75,59.51s178.38-47.93,211.58-73Z"/>
      <path class="cls-8" d="M730.36,418.49s-17.98-150.01-183.09-190.92c-173.76-43.05-367.2,144.48-332.77,315.53,34.43,171.05,163.44,246.26,340.99,194.63,177.55-51.63,227.36-207.33,227.36-207.33l7.1,193.27-32.1,91.58s-600.02,139.3-682.54,13.3c-82.52-126-3.22-603.32,57.4-649.53,60.62-46.21,499.48-131.76,561.59-83.67,62.11,48.1,133.86,268.22,115.38,288.07-18.48,19.85-79.32,35.08-79.32,35.08Z"/>
      <path class="cls-29" d="M435.28,576.57s387.66-52.71,620.2-250.99l-5.02-39.45-215.16,41.36-29.44,29.99-370.58,219.08Z"/>
    </g>
    <path class="cls-24" d="M189.57,306.31s30.24-59.16,113.9-114.76l-142.79-16.28,28.89,131.04Z"/>
    <path class="cls-12" d="M258.86,782.5s-62.32-43.05-112.61-145.95l-39.83,158.94,152.44-12.99Z"/>
    <path class="cls-1" d="M663.87,153.84s66.25,31.36,130.38,121.76l13.16-158.01-143.54,36.26Z"/>
    <path class="cls-22" d="M790.39,620.91s-24.72,66.31-106.4,135.45l153.09-.35-46.69-135.1Z"/>
    <g class="cls-16">
      <path class="cls-5" d="M807.4,117.58s-52.91,52.64-90.75,106.58l-81.15-76.67,13.57-48.4,120.1-10.19s60.71-1.67,38.23,28.68Z"/>
    </g>
    <path class="cls-28" d="M542.47,826.73s-69.41,23.55-178.36,3.21l100.45,122.68,77.9-125.89Z"/>
    <g class="cls-27">
      <path class="cls-6" d="M464.57,952.62s1.4-74.62-8.94-139.69l111.63-1.36,23.91,44.21-79.19,90.86s-42.45,43.43-47.41,5.99Z"/>
    </g>
    <path class="cls-33" d="M568.83,129.38s-71.58-15.79-177.63,16.37L477.59,12.8l91.24,116.58Z"/>
    <g class="cls-21">
      <path class="cls-7" d="M477.56,15.77s-1.44,74.62,8.87,139.7l-111.63,1.31-23.89-44.22,79.24-90.82s42.47-43.4,47.42-5.96Z"/>
    </g>
    <g class="cls-10">
      <path class="cls-4" d="M160.68,175.27s45.68,49.01,81.75,73.19l-55.99,80.57-15.3-39.41-13.73-66.14,3.26-48.2Z"/>
    </g>
    <path class="cls-26" d="M135.31,560.11s-16.4-72.23,15.45-179.59L16.95,468.63l118.36,91.48Z"/>
    <g class="cls-19">
      <path class="cls-9" d="M16.95,468.63s74.11,9.3,122.25,4.2l9.67,108.95-41.26-22.79-59.02-46.78-31.65-43.58Z"/>
    </g>
    <g class="cls-2">
      <path class="cls-31" d="M60.32,833.96s86.8-75.62,149.71-114.31c62.91-38.68,121.12,118.82,121.12,118.82l-171.31,39.71-99.52-44.22Z"/>
    </g>
    <g class="cls-3">
      <path class="cls-18" d="M856.88,769.35s-70.26-45.59-109.9-81.86c-39.64-36.27,58.89-108.49,58.89-108.49l62.04,111.89-11.02,78.46Z"/>
    </g>
  </g>
</svg>